<?xml version="1.0" encoding="UTF-8"?>
<svg id="Camada_2" data-name="Camada 2" xmlns="http://www.w3.org/2000/svg" viewBox="0 0 149.01 223.4">
  <defs>
    <style>
      .cls-1 {
        fill: #fff;
      }

      .cls-2 {
        fill: none;
        stroke: #000;
        stroke-linecap: round;
        stroke-linejoin: round;
        stroke-width: 2px;
      }

      .cls-3 {
        stroke: #fff;
        stroke-miterlimit: 10;
      }
    </style>
  </defs>
  <g id="Camada_1-2" data-name="Camada 1">
    <g>
      <path class="cls-3" d="M148.22,106.85c-.14-.45-.88-1.66-.89-1.76-.01-.22.7-1.31.8-1.85.21-1.21-.06-2.73-.59-3.83-.2-.41-.98-1.31-.99-1.53,0-.36.7-1.75.72-2.54.05-1.6-.88-3.56-2.17-4.51-2.95-2.17-9.54-.26-12.99-.09-.15-2.3-.36-5.08-1.41-7.16-2.6-5.15-9.94-4.77-9.78,1.85.1,4.28,1,5.44-.53,9.92-.19.56-1.55,4.25-1.71,4.42-.29.29-1.51.16-2.09.26-4.16.72-7.07,4.26-10.4,6.38-3.38,2.15-4.92,1.79-7.97-.72.12-1.11.75-2.15.7-3.3-.05-1.32-.96-2.12-1.44-3.24,9.9-7.64,17.12-18.66,19.74-30.97,1.91-8.95,1.54-18.64-1.13-27.39-.44-1.44-1.1-2.8-1.51-4.26l4.05-2.44c.91.18,3.26,8.3,4.85,3.54.91-2.74,1.39-5.71,2.41-8.44.12-1.07-.35-1.35-1.23-1.68-1.89-.71-5.65-1.65-7.68-2.06-1.11-.23-2.72-.29-2.3,1.39.22.9,3.05,4.47,2.99,4.77l-4.33,2.63c-5.9-13.28-19.02-23.38-33.19-26.44-1.32-.28-5.47-1.46-5.91.22-.88,7.52-1.95,15.02-3.14,22.49-.05.3-.07,1.09-.33,1.2.04-2.01.07-4.04.17-6.05.35-7.07,1.06-14.2,1.28-21.28.05-1.66.51-3.53-1.53-3.72-11.98-1.11-26.04,2.78-36.09,9.21-14.94,9.55-25.05,26.07-26.24,43.9-2.42.92-4.24,1.91-5.56,4.23-2.12,3.73-2.03,8.82.32,12.42.25.38,1.2,1.32,1.24,1.47.08.34-.3,1.11-.33,1.59-.31,4.44,2.37,9.23,7.4,8.31,1.22-.22,1.97-1.1,3.06-1.54l4.31,7.28c-3.86,3.15-4.54,8.3-1.81,12.45-3.96,3.49-7.31,7.67-9.93,12.27-4.15,7.3-9.05,20.8-5.12,28.82.45.92,2.58,3.47,2.63,3.86.17,1.3-.29,2.67-.2,3.99.05.72.44,1.47.36,2.14-.11.94-1.45,3.71-1.79,5.08-1.42,5.75-2.2,17.84,6.04,18.67.34.03.68-.22.98-.1.21.09,1.01,1.05,1.39,1.33,1.42,1.06,3.7,1.99,5.42,1.15.3-.14.81-.76.86-.76.11,0,1.09.98,1.85,1.21,4.88,1.47,7.2-2.51,5.63-6.81,2.19,1.54,5.28,1.46,6.32-1.34,1.36-3.65-1.19-10.25-1.99-13.99,4.92,2.69,10.47,3.74,15.88,4.98.17,6.57-.66,13.36-3.97,19.12-3.97-1.44-8.7-.97-10.01,3.69-.31,1.09-.08,3.31-.19,3.61-.04.09-.95,1.09-1.2,1.49-1.34,2.25-2.16,5.28-2.84,7.8-.27,1-.47,3.04-.86,3.82-.15.3-1.06.85-1.4,1.32-1.08,1.53-1.32,4.29-1.37,6.12-3.35.44-7.15.75-10.28,2.08-2.42,1.03-4.38,2.89-1.61,5.03,4.93,3.81,20.86,5.83,27.34,6.58,22,2.55,45.6,2.11,67.61-.54,6.43-.78,19.28-2.36,24.59-5.72,3.88-2.45.49-4.9-2.45-5.65.31-2.56.35-6.26-1.73-8.1-.28-.25-.8-.35-1-.62-.26-.34-.58-1.67-.86-2.21-2.43-4.72-7.56-7.69-12.54-9.07-.53-1.87-1.21-2.75-2.94-3.6-.3-.15-1.24-.37-1.29-.43-.09-.09-.26-1.13-.42-1.48-.67-1.45-2.3-2-3.69-2.45,1.42-9.1-6.05-9.99-12.88-7.59-.25-5.21-1.05-10.39-2.71-15.34,3.03-.93,9.41-1.22,11.36-3.88,1.5-2.04.19-4.56.76-6.46.07-.24,1.21-1.49,1.48-1.95,1.32-2.15,1.76-4.53,1.91-7.02,7.17,1.56,14.93-.08,21.16-3.82,5.45-3.27,11.08-9.26,10.77-16.03,5.57-.33,14.13-6,12.14-12.41ZM11.58,75.82c-.49,1.77-3.18.46-2.86-1.13.76.15,3.22-.17,2.86,1.13ZM82.86,177.73h-2.62c-.22,0-1.7.7-1.98.9-1.65,1.2-2.43,3.13-2.26,5.15.06.68.59,1.69.52,2.12-.04.27-.86,1.64-1.06,2.2-.24.7-.42,1.56-.59,2.29-.37,1.6-.62,5.67-1.07,6.69-.17.38-.73.88-1,1.34-.25.42-.25.98-.66,1.32-1.47-1.56-3.33-2.77-5.29-3.63.13-1.78-.65-3.15-2.03-4.2-.4-.31-1.98-1.04-2.06-1.19-.16-.27-.14-1.29-.41-1.93-.48-1.11-1.91-2.25-3.1-2.41.9-2.55,1.36-5.77-.63-7.94-1.56-1.71-4.59-1.96-6.77-1.98,1.32-4.93,2.16-10.03,2.16-15.16.46-.03.89.17,1.34.19,1.65.06,5.56.27,6.95-.28,1.82-.72,2.53-3.21,3.37-4.79l6.82-.18c1.66-.03,3.85-.76,5.42-.74.97.01,1.55,1.38,1.99,2.18,3.25,6,3.88,13.35,2.97,20.04Z"/>
      <path class="cls-1" d="M58.87,155.35c.2-.2,2.03.77,2.08-.81.07-2.24-4.42-1.44-5.96-1.53-.83-.05-1.68-.13-2.52-.19-7.84-.57-15.65-1.91-23.16-4.17-.43-1.39.89-1.63,1.6-2.6,3.62-4.91,1.61-12.49,1.99-18.04.3-4.41,2.02-9,3.74-13.03-1.78-3.34-3.26,1.17-3.88,2.78-1.27,3.32-2.42,7.59-2.57,11.15-.2,4.81,2.22,13.69-3.79,16.06-4.43,1.75-14.2,1.29-18.52-.78-8.64-4.15-4-19.29-.99-25.96,2.8-6.21,7-12.08,12.21-16.45,7.56,5.58,16.71,8.78,26,10.05,2.63.36,5.27.47,7.91.75,1.99.21,4.41.88,6.34.88,1.15,0,2.7-1.17,1.39-2.12s-5.52-1.46-7.19-1.65c-10.93-1.25-24.42-2.12-33.1-9.83-3.27-2.9-3.71-7.27-.45-10.37,9.14,11.19,23.58,16.96,37.4,19.97,1.36.3,5.37.69,6.18,1.4,1.44,1.27,1.11,3.08,1.26,4.7,1.01,11.32,2.86,30.94-1.96,41.18-.19.39-.69,1.56-.92,1.78-.46.44-2.69.68-3,.27-.12-.16-.03-2.98-.07-3.43Z"/>
      <path class="cls-1" d="M95.85,43.01c-.52-4.96-3.77-11.3-9.29-11.82-11.41-1.06-17.41,15.67-12.21,24.3l2.01,2.94-8.12,4.78,8.47-53.07c7.04.78,14.15,3.82,19.91,7.9,5.46,3.86,10.8,9.81,13.75,15.84.23.46.95,1.72.63,2.07l-15.15,9.66c-.06-.84.09-1.79,0-2.62Z"/>
      <path class="cls-1" d="M80.56,110.64c-.78.73-.33,2.05.81,2.26,2.07.38,7.7-1.23,9.89-1.93.53-.17,2.65-1.22,2.97-1.01.43.27,3.12,8.39,3.47,9.53,1.97,6.26,5.84,19.3,2.56,25.21-2.07,3.73-8.37,4.89-12.26,5.42-.73.1-2-.22-2.49.59-1.83,3.06,5.48,1.67,6.73,1.21l.17,3.05c-.15.21-4.54,1.01-5.15,1.07-1.78.2-3.45.56-4.47-1.26-1.13-2.02-.97-8.3-1.2-10.89-.52-5.89-1.14-11.81-2.01-17.66-.56-3.79-1.81-8.3-2.11-11.96-.11-1.33-.11-2.89,1.18-3.65,1.17-.69,3.68-1.31,5.11-1.93,4.19-1.79,8.51-4.35,11.82-7.48,1.2,1.82-.2,3.86-1.63,5.05-1.62,1.35-3.96,2.31-6,2.84-1.28.33-6.85,1.04-7.39,1.54Z"/>
      <path class="cls-1" d="M132.83,123.23c-2.85,7.9-12.21,13.08-20.29,13.54-5.12.29-6.99-.74-8.76-5.51s-2.85-9.97-4.5-14.8c-.39-1.13-2.07-4.89-1.95-5.72.02-.17.54-1.85.59-1.95.18-.32.22-.07.37,0,3.4,1.67,4.82,2.08,8.26.15,3.83-2.15,6.8-6.2,11.49-6.82-.07,1.3.07,2.59.33,3.86-5.95,3.35-1.64,11.35,2.11,14.72,1.65,1.48,5.71,3.44,7.93,3.45,1.44,0,2.97-.85,4.42-.91Z"/>
      <path class="cls-1" d="M53.6,28.72c8.86-1.05,11.65,10.01,11.23,16.83-.45,7.42-5.63,17.36-14.54,14.71-12.42-3.69-9.09-30.06,3.31-31.54Z"/>
      <path class="cls-1" d="M27.43,202.3c.3-.08.46.02.72.11.96.33,2.69,1.49,3.77,2,6.34,3.02,12.23,6.45,19.31,7.58,6.15.98,14.39.88,20.45-.6.81-.2,3.99-1.43,4.38-1.33,1.47.39,1.46,5.06.67,6.2-1.67,2.43-9.86,3.65-12.72,3.88-8.99.72-17.76-.56-26.01-4.12-2.27-.98-10.42-4.49-11.79-5.89-1.39-1.42-.67-7.31,1.22-7.83Z"/>
      <path class="cls-1" d="M75.23,199.23c.39-.11,4.04,1.2,4.85,1.41,3.46.9,6.79,1.79,10.22,2.77,10.39,2.98,18.88,2.91,29.4.62,1.41-.31,4.17-1.45,5.46-1.21,1.52.29,1.65,4.57,1.14,5.64-.65,1.35-4.81,2.69-6.27,3.11-6.43,1.85-14.92,2.26-21.53,1.33-7.34-1.04-14.14-4.57-21.4-6.03l-2.89-5.06c-.09-.57.41-2.41,1.03-2.58Z"/>
      <path class="cls-1" d="M14.53,164.96c-.95.94.44,8.09,1.37,9.47.18,1.14-1.9.43-2.5.14-2.19-1.05-3.39-3.63-3.6-5.96-.1-1.11.4-4.17-.73-4.69-1.74-.8-1.48,3.45-1.42,4.31.09,1.26.41,2.74.88,3.9-1.72-.46-3.13-2.16-3.69-3.79-.98-2.82-.47-8.2.24-11.12.14-.56,1.26-4.37,1.46-4.5.33-.23,1.52.55,2,.73,5.34,2,11.17,2.22,16.68.81,1.12.07,1.74,1.55,2.08,2.45.83,2.23,2.51,9.18,2.12,11.33-.45,2.46-3.19,1.45-4.11-.13-1.02-1.77-.66-5.03-1.36-6.04-.55-.79-1.59-.32-1.71.61-.15,1.15-.08,3.67.01,4.88.13,1.77,1.45,5.87.91,7.23-.63,1.61-2.77,1.21-3.93.47-1.85-1.18-2.59-4.77-2.92-6.82-.12-.77.06-3.37-.84-3.51-.24-.03-.78.06-.94.23Z"/>
      <path class="cls-1" d="M131.75,93.27c-.99,1.62-1.86,3.49-1.58,5.46.1.69.57,1.27.65,1.72.15.86-2.59,5.62-3.25,6.6-.36.54-1.62,1.64-1.25,2.2,1.25,1.89,3.27-1.91,3.89-2.45.54-.47.39.01.63.27.21.23,1.21,1.12,1.22,1.27.01.13-.56,1.06-.63,1.49-.74,4.39,2.44,6.13,6.37,5.83.62-.05,2.25-.36,2.71-.72.4-.32.62-1.36.24-1.6-.34-.22-2.86.34-3.49.33-.92-.01-2.98-.55-3.42-1.45-.36-.73-.24-1.97.4-2.52,1-.86,5.75-1.16,7.41-1.56.65-.16,3.14-1.15,3.37-1.14,1.1.02,1.26,2.09,1.09,2.89-1.15,5.49-11.58,8.34-16.3,7.08-3.26-.87-6.35-4.39-7.83-7.33-4.22-8.37,2.26-12.66,1.85-20.79-.1-2.02-1.44-5.5,1.16-6.23,3.6-1.01,4.31,4.82,4.6,7.14.21,1.65-.44,3.97,2.17,3.52Z"/>
      <path class="cls-1" d="M66.99,3.4l-.18,35.91-1.07-3.89c-1.3-3.83-4.8-8.49-9.12-8.92-20.14-2.01-22.27,38.03-2.7,36.46,6.63-.53,10.26-6.41,12.15-12.03.09-.28-.16-.52.38-.42.03,4.85.03,9.7-.37,14.53.03.79.86,1.66,1.68,1.5l44.6-28.31c1.14,2.77,1.99,5.68,2.56,8.63,6.06,31.53-17.58,60.87-50.01,59.77-17.44-.59-34.68-7.85-44.97-22.15-.61-.84-2.65-3.58-2.84-4.39-.06-.23,1.03-2.39,1.14-3.21s-.12-2.15.08-2.81,3.21-1.62,1.85-3.19-3,1.64-3.68,1.07c-.06-.05-.32-1.1-.58-1.49-1.97-3-6.36-2.02-5.56,1.68-2.67-.14-5.42-2.26-6.27-4.83-2.11-6.42,2.05-12.5,9.01-11.54,1.2.17,3.34,1.79,4.01.31.94-2.05-4.53-3.34-5.86-2.7.22-8.78,3.41-17.32,8.11-24.64C29.57,12.88,48.06,3.09,66.99,3.4Z"/>
      <path class="cls-1" d="M74.74,208.03c-3.72,1.27-7.68,2.01-11.62,2.18-4.67.21-9.9.04-14.43-1.1-.57-.14-1.77-.42-2.22-.66-.63-.33.16-1.58.4-2.04,1.7-3.25,5.47-6.57,8.89-7.89,8.56-3.33,16.37,1.05,18.98,9.51Z"/>
      <path class="cls-1" d="M123.45,200.64c-9.08,2.66-18.84,4.02-28.14,1.62,1.42-5.57,6.86-9.94,12.44-10.93,3.63-.64,7.74.98,10.71,3.02,2.26,1.55,4.08,3.66,4.99,6.28Z"/>
      <path class="cls-1" d="M83.54,33.59c6.53-.94,9.77,4.78,10.14,10.51.08,1.29.32,2.77-.73,3.59-3.2,2.5-8.17,5.38-11.73,7.58-.49.31-2.4,1.59-2.77,1.56-1.21-.11-3.17-4.29-3.44-5.42-1.37-5.84,1.64-16.83,8.53-17.82Z"/>
      <path class="cls-1" d="M81.6,180.26c-.25,1.24-.93,1.85-.15,3.13,1.25,2.06,4.55.31,6.33.53.93.11,3.27,1.22,3.35,2.24.02.26-1.23,1.8-1.37,2.54-.12.62.14,1.81.05,2.03-.1.25-1.97,1.62-2.36,1.98-1.75,1.66-3.87,3.88-4.24,6.32-.95-.01-6.88-1.54-7.01-2.09.41-3.2.68-6.46,1.96-9.46.6.48,2.32,1.35,2.52.08.19-1.18-1.02-1.4-1.62-2.16-1.88-2.36-.45-5.26,2.52-5.14Z"/>
      <path class="cls-1" d="M37.04,181.52c-.9,1.38-2.21,3.93-.25,5.03,1.23.68,2.45,0,3.75.22.89.14,2.04,1.06,2.52,1.81,1.37,2.11-.22,2.14-.88,3.96-.25.69-.12,1.89-.17,1.98-.1.17-1.81,1.32-2.17,1.63-2.09,1.79-4.05,3.87-5.05,6.49-.13.2-.32.2-.53.18-.45-.03-2.79-1.23-3.36-1.53-.29-.16-2.08-1.13-2.1-1.25.45-2.75,1.13-5.49,2.15-8.09.18-.45,1.02-2.76,1.48-2.66.33.07,1.01,2,2.33,1.07,1.16-.81-1.08-2.67-1.3-3.91-.36-2.13,1.05-5.54,3.56-4.92Z"/>
      <path class="cls-1" d="M56.87,186.01c-3.91-.27-7.59.64-10.98,2.55.18-1.19-2.75-3.06-2.86-3.37-.44-1.29.38-4.22,1.6-5.01,1.5-.97,6.56-1.48,8.38-1.36,5.09.34,5.27,2.85,3.86,7.2Z"/>
      <path class="cls-1" d="M101.8,181.52c-3.08.26-5.97,1.39-8.54,3.05-.65-.98-2.94-1.87-3.44-2.7-.83-1.39-.4-4.19.89-5.22,1.61-1.29,7-2.1,8.94-1.54,2.67.76,2.47,4.25,2.15,6.41Z"/>
      <path class="cls-1" d="M47.14,195.96c-.4,1.25-.72,2.07-.22,3.38.21.55,1.2,1.54,1.1,1.91-1.49,1.92-3.3,3.89-3.95,6.26-2.66-.83-5.14-2.13-7.5-3.61.99-2.46,2.87-4.98,4.99-6.58.3-.23,1.87-1.28,2.09-1.32.33-.06,1.18.34,1.78.33s1.13-.29,1.71-.37Z"/>
      <path class="cls-1" d="M57.07,155.35l-.2,3.41c-.3.25-5.55-.09-6.39-.16-5.44-.49-10.89-1.63-16.13-3.09l.25-3.05c7.35,1.73,14.9,2.74,22.46,2.89Z"/>
      <path class="cls-1" d="M133.08,106.2c-1.1-1.1-.78-3.62.74-4.28,2.78-.34,6.7-2.16,9.39-2.15,3.16,0,3.46,3.43,1.34,4.95-1.49,1.06-6.82,1.97-8.74,2.08-.95.06-2.01.12-2.73-.6Z"/>
      <path class="cls-1" d="M94.95,191.81c-.46,1.24.24,3.26,1.62,3.61-.59,1.16-1.56,2.27-2.19,3.48-.47.89-.91,1.81-1.06,2.81-.48.42-7.08-2.07-8.1-2.33-.23-.32,1.8-3.24,2.17-3.69.6-.73,3.48-3.7,4.22-3.71.52-.01,1.09.26,1.81.19.55-.05.98-.37,1.53-.36Z"/>
      <path class="cls-1" d="M139.83,92.24c2.64-.17,5.15-.07,4.91,3.29-.05.67-.14,1.05-.63,1.54-.79.78-1.23.4-2.12.58-1.78.36-7.12,2.02-8.49,1.72-2.12-.48-.92-4.18.23-5.29,1.31-1.27,4.33-1.72,6.1-1.84Z"/>
      <path class="cls-1" d="M57.57,192.76c1.9-.19,5.83-.31,6.87,1.68s-1.05,1-2.04.96c-3.54-.14-6.53.69-9.6,2.32-.88.47-2.47,2.12-3.39.93-1.02-1.3.74-2.81,1.73-3.5,1.7-1.19,4.38-2.19,6.44-2.4Z"/>
      <path class="cls-1" d="M53.96,188.07c1.41-.13,5.57-.12,6.26,1.39.13.27.21.8-.08,1-.32.23-3.36.03-4.08.07-1.84.11-4.15.65-5.85,1.36-1.06.45-4.98,3.26-5.69,1.53-.46-1.13,2.51-3.04,3.36-3.49,1.72-.92,4.13-1.68,6.08-1.86Z"/>
      <path class="cls-1" d="M105.96,185.13c-3.12.54-6.38,1.26-9.14,2.86-1.18.68-2.62,2.29-4.08,1.98-1.7-.36.43-2.5,1.04-3.03,2.49-2.16,6.96-3.87,10.26-3.42.8.11,1.94.71,1.91,1.61Z"/>
      <path class="cls-1" d="M6.01,73.24c1.38.22,1.11,1.77,1.54,2.88.51,1.34,1.58,2.52,3.16,2.08,2.05-.57,2.39-2.84,2.14-4.68-.13-.97-1.67-2.94-.18-3.27,1.28-.28,2.22,1.9,2.34,2.91.23,1.81-.12,3.58-1.25,5.03-3.5,4.49-9.17-.35-7.75-4.96Z"/>
      <path class="cls-1" d="M109.69,188.43c.2.24.25.55.23.85-2.95-.12-6.2.86-8.71,2.38-.83.5-3.5,3.18-4.06,1.28-.88-3,5.45-5.24,7.65-5.44,1.2-.11,4.06-.05,4.88.93Z"/>
      <path class="cls-1" d="M121.81,113.51c.13.07,1.39,1.95,1.74,2.32.75.82,1.6,1.52,2.43,2.25-.43.29-1.76,1.98-2.1,2.05-.82.16-4.24-3.56-4.68-4.48-.08-.3,2.2-2.39,2.61-2.15Z"/>
      <path class="cls-1" d="M15.93,148.13l-.36,4.33c-.17.17-4.48-.7-4.61-.89-.27-1.39.18-2.78.28-4.16,1.5.47,3.11.68,4.69.72Z"/>
      <path class="cls-1" d="M22.43,148.31c.09.07-.18.23-.18.27v3.43c0,.14-1.04.45-1.17.45h-3.25s-.2.27-.27.18l.18-3.88c0-.15.17-.45.27-.45h4.42Z"/>
      <path class="cls-1" d="M98.2,152.19c-.29,1.85-2.06,2.02-3.61,2.26.23-.59-.43-3.02-.07-3.27l3.68-1.6c-.09.81.12,1.84,0,2.62Z"/>
      <path class="cls-1" d="M119.12,108.25l1.43,3.68-2.24,1.91c-1.11-1.66-1.8-5.07.81-5.59Z"/>
      <path class="cls-1" d="M6.73,145.97c.09-.09,2.27.77,2.41.88.38.29-.27,3.16-.25,3.81-.4-.07-2.16-1.53-2.16-1.71v-2.98Z"/>
      <path class="cls-1" d="M26.4,147.59v2.98c0,.47-2.34,1.49-2.53,1.35-.04-.14.18-.22.18-.27v-3.7l2.35-.36Z"/>
      <path class="cls-1" d="M131.03,120.88l-1.43.64c-1.37.28-2.79-.07-3.98-.73,1.98-2.71,3.14-.95,5.41.09Z"/>
      <path d="M47.21,20.84c-1.6-1.6.89-2.98,2.16-3.58,2.75-1.3,5.56-1.74,8.47-.65,1.34.51,3.87,1.59,2.82,3.46-.85,1.52-2.42-.05-3.46-.46-2.1-.83-4.15-.7-6.2.18-1.2.52-2.69,2.15-3.78,1.05Z"/>
      <path d="M13.59,64.04c-1.38.51-.07,3.25-1.39,3.4-1.61.18-1.64-2.39-1.17-3.52.22-.53.66-.79.76-1.32-.99-.55-3.35.67-3.75-.67-.62-2.08,3.14-2.12,4.44-1.73,1.58.48,3.31,2.25,3.74,3.84.67,2.46-2.29,2.21-2.62,0Z"/>
      <path d="M49.63,116.24c11.94-1.45,15.89,15.43,5.19,19.62-11.36,4.45-19.16-11.93-8.56-18.31,1.01-.61,2.2-1.17,3.37-1.32Z"/>
      <path d="M35.97,148.49c-.06-.04-.38-1.26-.29-1.44.23-.44,1.76-1.03,2.25-1.37,1.26-.86,2.61-2.33,3.41-3.63.54-.88,1.13-3.2,2.27-3.12,1.63.12,1.02,1.66.56,2.7-.84,1.9-3.58,5.19-5.44,6.11-.39.19-2.55.9-2.76.75Z"/>
      <path d="M85.89,22.4c1.79-.17,4.04.25,5.64,1.11.78.42,1.25.66,1.27,1.63.07,2.98-3.37.52-4.84.32-1.34-.18-2.57-.05-3.83.41-.89.33-2.77,1.73-3.56,1.4-.92-.38-1.11-1.66-.52-2.41.9-1.13,4.4-2.32,5.84-2.46Z"/>
      <path d="M91,123.39c.46.54,3.6-.59,3.01,2.24s-3.63,6.75-4.5,9.58c-.59.79-1.73,1.22-2.4.29-.8-1.1.45-5.35.27-6.85-1.67.11-3,0-2.66-2.03.15-.91,3.31-7.61,3.93-8.34s1.58-1.15,2.25-.27c.79,1.04-.18,5.05.11,5.39Z"/>
      <path d="M52.33,39.9c4.54-.95,5.4,5.76,5.08,8.87-.3,2.84-2.89,7.35-6.24,5.38-3.9-2.29-3.3-13.32,1.16-14.25Z"/>
      <path d="M80.3,40.43c2.9-.41,4.05,4.43,4.02,6.55-.03,2.79-1.51,7.19-4.98,6.77-5.11-.63-4.41-12.57.96-13.32Z"/>
      <path class="cls-1" d="M49.62,118.4c10.77-1.68,12.03,15.02,2.1,16-9.75.95-10.81-14.64-2.1-16Z"/>
      <path class="cls-1" d="M92.06,125.4l-3.25,7.22c0-1.32.85-3.71.5-4.92-.28-.96-1.87-.76-2.58-.85-.25-.03-.31.1-.26-.27l2.79-5.69c.28,1.14-.88,3.94.76,4.29.61.13,1.39,0,2.04.22Z"/>
      <path d="M51.29,128.1c-.26-.07-.3.07-.45.18-.69.47-2.38,2.7-2.92,2.86-.72.22-1.57-.56-1.46-1.28.16-1.1,2.54-2.71,3.2-3.68-.42-1.18-3.61-3.56-1.96-4.66,1.47-.98,2.8,2.36,3.69,3.15.21,0,2.33-2.57,2.8-2.79,1.02-.47,2,.49,1.53,1.53-.28.6-2.88,2.58-2.95,3.01.36,1.22,3.23,3.24,2.34,4.5-1.24,1.75-3.22-1.94-3.8-2.81Z"/>
      <path d="M71.74,61.16c4.21-1.7,10.85.7,14.32,3.34,2.19,1.73,3.79,4.68,6.57,5.52,1.23.36,3.04-.04,4.11.13.47.09.69.38.72.89-2.44,11.91-20.44,11.6-27.03,3.29-.57-.74-1.1-1.16-1.64-.13-4.44,8.14-18.19,10.34-24.95,4.07-1.19-1.15-3.72-4.04-1.88-5.49,1.34-.85,2.97-.81,4.17-1.81.45-.33.95-.8,1.37-1.24,3.27-3.45,5.24-7.4,10.43-8.56,4.91-1.48,9.17,3.49,13.62.03l.19-.04Z"/>
      <path d="M41.31,44.67h24.53s-.59-17.56-11.18-17.35-13.35,17.35-13.35,17.35Z"/>
      <path d="M72.86,44.67h22.65s-.55-12.94-10.32-12.78-12.33,12.78-12.33,12.78Z"/>
      <g>
        <g id="_Repetição_radial_" data-name="&amp;lt;Repetição radial&amp;gt;">
          <line class="cls-2" x1="96.87" y1="86.8" x2="98.16" y2="88.13"/>
        </g>
        <g id="_Repetição_radial_-2" data-name="&amp;lt;Repetição radial&amp;gt;">
          <line class="cls-2" x1="65.61" y1="101.65" x2="65.58" y2="103.5"/>
        </g>
        <g id="_Repetição_radial_-3" data-name="&amp;lt;Repetição radial&amp;gt;">
          <line class="cls-2" x1="33.01" y1="90.04" x2="31.67" y2="91.32"/>
        </g>
        <g id="_Repetição_radial_-4" data-name="&amp;lt;Repetição radial&amp;gt;">
          <line class="cls-2" x1="18.16" y1="58.77" x2="16.31" y2="58.74"/>
        </g>
        <g id="_Repetição_radial_-5" data-name="&amp;lt;Repetição radial&amp;gt;">
          <line class="cls-2" x1="29.77" y1="26.17" x2="28.48" y2="24.84"/>
        </g>
        <g id="_Repetição_radial_-6" data-name="&amp;lt;Repetição radial&amp;gt;">
          <line class="cls-2" x1="61.03" y1="11.32" x2="61.06" y2="9.47"/>
        </g>
        <g id="_Repetição_radial_-7" data-name="&amp;lt;Repetição radial&amp;gt;">
          <line class="cls-2" x1="93.63" y1="22.93" x2="94.96" y2="21.65"/>
        </g>
        <g id="_Repetição_radial_-8" data-name="&amp;lt;Repetição radial&amp;gt;">
          <line class="cls-2" x1="108.48" y1="54.19" x2="110.33" y2="54.23"/>
        </g>
      </g>
    </g>
  </g>
</svg>