<?xml version="1.0" encoding="UTF-8"?>
<svg id="Camada_2" data-name="Camada 2" xmlns="http://www.w3.org/2000/svg" viewBox="0 0 25.62 19.62">
  <defs>
    <style>
      .cls-1 {
        fill: #d1e7da;
      }
    </style>
  </defs>
  <g id="Camada_1-2" data-name="Camada 1">
    <path class="cls-1" d="M21.76,5.01l-6.86,6.86.06-9.24c0-.09,0-.17-.01-.26v-.11C14.97,1,13.96,0,12.71,0c-1.25.01-2.27,1.03-2.28,2.28l-.06,9.62L3.88,5.41c-.88-.88-2.31-.87-3.2.02s-.9,2.32-.02,3.2l10.34,10.34s.05.04.08.07c.04.04.09.08.13.11.04.03.09.07.14.1.04.03.09.06.13.08.05.03.11.06.17.08.03.01.05.03.08.04.01,0,.03,0,.05.01.06.02.12.04.18.06.04.01.09.02.14.04.06.01.13.02.19.03.04,0,.09.01.14.02.06,0,.13,0,.2,0,.04,0,.09,0,.13,0,.06,0,.13-.01.2-.02.04,0,.09-.01.13-.02.06-.01.12-.03.19-.05.04-.01.09-.03.14-.05.02,0,.04-.01.06-.02.04-.02.07-.04.11-.05.04-.02.09-.04.13-.07.05-.03.11-.07.16-.1.04-.03.08-.06.12-.09.05-.04.09-.08.14-.12.02-.02.05-.04.08-.07l10.75-10.75c.89-.89.9-2.33.02-3.21s-2.31-.87-3.21.02h0Z"/>
  </g>
</svg>