<?xml version="1.0" encoding="UTF-8"?>
<svg id="Camada_2" data-name="Camada 2" xmlns="http://www.w3.org/2000/svg" xmlns:xlink="http://www.w3.org/1999/xlink" viewBox="0 0 825 539">
  <defs>
    <style>
      .cls-1, .cls-2 {
        fill: #010101;
      }

      .cls-3, .cls-4, .cls-5 {
        fill: #fff;
      }

      .cls-6 {
        fill: none;
      }

      .cls-4 {
        stroke-miterlimit: 10;
        stroke-width: 6px;
      }

      .cls-4, .cls-5, .cls-2 {
        stroke: #fff;
      }

      .cls-7 {
        clip-path: url(#clippath);
      }

      .cls-8 {
        fill: #d9d9d9;
      }
    </style>
    <clipPath id="clippath">
      <rect class="cls-6" width="825" height="539"/>
    </clipPath>
  </defs>
  <g id="Camada_1-2" data-name="Camada 1">
    <g class="cls-7">
      <g>
        <path class="cls-3" d="M146.81,172.1c-3.26,9.15-8.76,17.28-14.23,25.23-4.71,6.85-9.47,13.69-14.61,20.24-9.98,12.72-21.55,24.87-36.26,32.06-8.06,3.94-16.81,5.88-25.75,6.37-10.48.57-21.02-.29-31.5-.78-2.65-.13-5.3-.24-7.96-.38-2.1-.11-4.35-.25-6.24-1.26-3.04-1.62-4.32-4.89-4.96-8.11-.81-4.03-.62-8.24-.66-12.32-.05-5.41-.09-10.83-.12-16.24-.08-21.5.09-43.01.52-64.51.22-10.83.51-21.65.86-32.47.17-5.33.36-10.66.57-15.99.21-5.26.43-10.55,1.2-15.75.24-1.6.3-4.15,1.76-5.21,1.46-1.06,3.76-.81,5.41-.91,5.02-.28,10.04-.58,15.05-.87,10.17-.6,20.35-1.16,30.53-1.46,10.19-.3,20.4-.34,30.59.15,5.06.24,10.11.62,15.14,1.16,4.41.48,8.86.98,13.18,2,6.09,1.45,11.88,4.08,16.35,8.27,4.36,4.09,7.37,9.4,9.33,15.04,2.6,7.48,3.66,15.46,4.58,23.29,1.12,9.59,1.63,19.38.37,28.97-.6,4.58-1.66,9.11-3.19,13.47-.4,1.16.46,2.47,1.58,2.79,1.25.34,2.38-.43,2.79-1.58,3.3-9.49,4.28-19.65,4.03-29.65-.25-9.65-1.41-19.43-3.26-28.9-1.32-6.77-3.45-13.55-7.15-19.43-3.46-5.49-8.28-10-14.06-12.94-7.51-3.83-15.85-4.9-24.13-5.81-10.4-1.14-20.88-1.56-31.33-1.58-20.81-.04-41.62,1.37-62.39,2.66-2.28.14-4.61.47-6.43,1.96-1.83,1.48-2.54,3.94-2.93,6.27-.9,5.46-1.25,10.98-1.48,16.51-.46,11.03-.8,22.07-1.09,33.1C.35,157.73.04,179.98,0,202.24c-.02,11.13.04,22.26.15,33.38.08,7.56.13,17.76,7.84,21.87,2.27,1.21,4.81,1.62,7.35,1.81,2.54.19,5.2.26,7.78.39,5.48.26,10.94.53,16.42.77,10.6.45,21.38.52,31.72-2.15,16.59-4.3,30.38-15.2,41.69-27.71,5.86-6.49,11.17-13.46,16.26-20.55,5.45-7.61,10.98-15.28,15.68-23.38,2.47-4.26,4.62-8.7,6.27-13.34.41-1.15-.46-2.48-1.58-2.79-1.25-.34-2.37.43-2.79,1.58l.02-.02Z"/>
        <path class="cls-3" d="M637.37,225.17c-8.47,4.42-17,9.1-23.68,15.94-10.65,10.92-15.46,26.07-22.65,39.52-15.35,28.76-43.03,50.67-74.54,59-14.84,3.92-30.29,4.93-45.33,8.03-16.89,3.48-33.62,9.83-46.46,21.36-12.83,11.53-21.24,28.84-19.09,45.95,1.89,14.99,11.64,28.27,24.11,36.8,12.47,8.53,27.44,12.75,42.41,14.77,5.5.74,11.19,1.2,16.54-.31,5.77-1.62,10.65-5.36,15.37-9.06,15.48-12.15,30.88-24.86,42.18-40.98,8.43-12.04,14.41-25.75,23.55-37.26,36.15-45.49,110.18-44.67,147.15-89.49,14.39-17.45,37.3-63.3,18.53-84.76-20.18-23.07-77.82,9.92-98.1,20.49h0Z"/>
        <path class="cls-3" d="M630.52,213.45c-8.2,4.27-16.1,8.91-23.13,14.98-7.03,6.07-12.66,14.32-17.02,22.67-4.11,7.86-7.41,16.12-11.68,23.9-1.87,3.42-3.94,6.74-6.15,9.95-.65.94-1.33,1.87-1.99,2.81-.14.21-1.54,2.03-.38.53-1.41,1.81-2.9,3.56-4.42,5.28-2.59,2.92-5.32,5.7-8.18,8.36-1.51,1.4-3.06,2.77-4.64,4.1-.71.59-1.41,1.17-2.13,1.75-2.06,1.67.74-.43-1.63,1.22-6.61,4.62-13.39,8.8-20.73,12.17-.46.21-3.14,1.38-1.17.55-.84.35-1.7.69-2.56,1.01-1.71.66-3.44,1.28-5.19,1.85-4.61,1.52-9.31,2.72-14.07,3.7-10.03,2.07-20.22,3.2-30.31,4.9-18.54,3.11-37.3,8.94-52.56,20.26-16.43,12.2-28.05,29.59-30.44,50.16-2.2,18.94,6.14,37.62,19.51,50.78,14.02,13.79,33.14,21.36,52.28,24.56,11.07,1.86,22.19,3.17,32.83-1.27,9.33-3.89,17.05-10.88,24.83-17.19,14.83-12.02,28.59-25.23,39.02-41.35,5.14-7.95,9.46-16.39,14.56-24.36,4.02-6.27,8.09-11.26,13.94-16.63,1.3-1.2,2.64-2.33,3.99-3.47.29-.24,2.22-1.79.92-.77-1.55,1.22,1.51-1.12,1.44-1.07,2.86-2.09,5.82-4.05,8.84-5.89,6.15-3.76,12.56-7.04,19.09-10.08,3.13-1.46,6.3-2.84,9.47-4.2,1.96-.84-1.83.76.14-.06.94-.39,1.89-.79,2.83-1.18,1.9-.78,3.79-1.55,5.7-2.32,6.85-2.76,13.72-5.48,20.54-8.32,13.86-5.79,27.69-11.91,40.17-20.35,24.59-16.65,41.56-41.58,50.02-69.97,4.47-15.01,5.85-31.41-.84-45.96-6.18-13.45-19.33-20.23-33.55-21.29-12.85-.96-26.23,2.76-38.18,7.13-12.6,4.6-24.78,10.37-36.68,16.53-4.18,2.16-8.33,4.4-12.5,6.57-6.5,3.39-8.45,12.47-4.87,18.58,3.86,6.59,12.06,8.28,18.57,4.87,8.8-4.6,17.53-9.31,26.52-13.55,2.64-1.25,5.31-2.44,7.99-3.61.67-.29,3.03-1.25.35-.15.69-.28,1.38-.57,2.07-.85,1.56-.62,3.13-1.24,4.71-1.82,5.64-2.1,11.38-3.95,17.25-5.27,1.35-.31,2.71-.58,4.07-.82.66-.12,1.34-.2,2-.33-3.14.62-1.43.16-.65.1,2.83-.24,5.61-.37,8.45-.28.39,0,1.51-.03,1.77.14-.08-.05-3.45-.72-1.02-.14,1.1.26,2.2.43,3.29.75.52.15,1.04.38,1.57.51,2.09.49-1.45,0-.99-.44.23-.24,2.81,1.66,3.11,1.79,1.47.64-1.8-1.94-.85-.65.31.42.81.74,1.18,1.11.4.41.74.9,1.17,1.29,1.29,1.19-.96-1.96-.33-.36.42,1.07,1.33,2.44,1.92,3.44.91,1.54-.52-2.26-.25-.49.12.8.52,1.61.72,2.4.3,1.15.75,4.53.44,1.43.14,1.41.24,2.82.27,4.24.03,1.65-.03,3.3-.14,4.93-.05.74-.17,1.49-.21,2.24-.07,1.64.46-2.25-.07.35-1.37,6.69-3.13,13.16-5.63,19.52-.3.75-.6,1.5-.91,2.25.21-.51,1.05-2.27-.06.08-.68,1.44-1.33,2.9-2.03,4.33-1.43,2.93-2.97,5.81-4.6,8.65-1.41,2.45-2.9,4.86-4.46,7.22-.72,1.08-1.45,2.14-2.2,3.19-.35.5-.73.97-1.08,1.48-.97,1.42,1.85-2.2.28-.37-4.33,5.07-8.91,9.61-14,13.92-.38.32-2.03,1.58-.04.06-.62.48-1.26.94-1.89,1.4-1.28.92-2.57,1.83-3.87,2.71-2.96,1.98-6.01,3.84-9.11,5.6-5.77,3.28-11.75,6.19-17.79,8.92-1.48.67-2.98,1.32-4.47,1.97-.75.33-1.5.64-2.25.97-1.96.84,1.83-.76-.15.06-3.22,1.33-6.44,2.65-9.68,3.96-6.47,2.61-12.96,5.17-19.39,7.87-27.5,11.51-53.47,25.43-70.88,50.5-9.67,13.92-16.57,29.62-27.39,41.52-5.92,6.52-12.43,12.48-19.15,18.15-6.71,5.65-12.27,10.72-19.14,14.72-1.93,1.12-2.12,1.21-3.56,1.6-1.78.48-2.16.52-4.6.51-4.78,0-7.18-.48-11.68-1.31-4.11-.76-8.19-1.71-12.2-2.9-4.01-1.19-7.41-2.4-10.58-3.94-8.15-3.97-12.42-6.99-18.07-13.33-.61-.69-1.21-1.38-1.78-2.1.4.51,1.08,1.65-.35-.55-1.01-1.54-2.01-3.05-2.9-4.65-.44-.8-.84-1.61-1.26-2.43-.15-.28-1.01-2.37-.26-.51-.75-1.9-1.35-3.87-1.82-5.85-.21-.89-.4-1.77-.55-2.67-.41-2.39-.06,3.05-.09-1.28,0-1.91-.04-3.78.04-5.7,0-.31.31-2.65,0-.62.14-.93.33-1.88.54-2.8.46-2.09,1.08-4.15,1.8-6.17,1.91-5.32,6.09-11.53,10.9-16.25,10.99-10.81,25.88-16.31,41.81-19.68,17.96-3.79,36.51-4.58,53.97-10.58,16.03-5.51,30.52-13.86,43.55-24.66,12.29-10.19,22.83-22.97,30.54-36.96,4.04-7.34,7.21-15.12,11.01-22.58,3.8-7.46,7-12.77,12.9-17.99,4.26-3.78,11.9-7.95,18.2-11.23,6.3-3.28,8.44-12.47,4.87-18.58-3.86-6.59-12.05-8.28-18.57-4.87h-.01Z"/>
        <path class="cls-3" d="M250.26,445.95c-2.03,2-4.36,3.95-7.09,4.9-2.94,1.03-5.99.77-8.99.13-6.03-1.29-12.25-3.58-18.35-1.25-9.23,3.53-13.08,13.59-20.49,19.16-2.14,1.6-4.22,2.52-6.82,3.01-3.43.64-6.96.55-10.35,1.46-6.16,1.65-11.03,6.08-15.3,10.61-4.91,5.22-9.76,10.48-14.86,15.5-1.3,1.29-2.61,2.58-3.95,3.83-1.11,1.04-2.28,2.04-3.79,2.41-1.66.42-3.43.21-5.13.33-1.51.12-3.02.37-4.47.82-5.67,1.77-10.28,5.89-13.91,10.47-1.89,2.39-3.57,4.9-5.17,7.5-1.44,2.35-2.92,4.71-4.88,6.67-1.69,1.7-3.81,3.07-6.29,3.04-2.15-.02-4.08-1.24-5.52-2.92-3.69-4.28-3.14-10.16-.91-14.99,1.4-3.02,3.29-5.8,5.21-8.52,2.16-3.04,4.36-6.07,6.54-9.1,4.38-6.09,8.9-12.11,13.1-18.32,3.72-5.49,7.06-11.49,7.97-18.15.91-6.66-1.17-13.86,2.34-19.75,2.97-4.97,8.44-7.94,12.91-11.37,5.04-3.88,9.7-8.19,13.96-12.91,8.49-9.38,15.44-20.06,21.57-31.09,3.07-5.53,5.95-11.16,8.73-16.84,2.95-6,5.92-12.02,8.63-18.14,2.96-6.65,5.24-13.33,6.32-20.54.48-3.21,1.3-5.96,3.97-8,2.14-1.64,4.81-2.66,7.49-3,5.43-.69,11.02,1.18,14.73,5.23,2.21,2.42,3.74,5.38,5.23,8.26.61,1.17,1.47,2.48,1.15,3.85-.32,1.37-1.43,2.43-2.3,3.4-8.34,9.29-17.49,20.06-16.81,33.36.28,5.52,2.17,11.09,6.1,15.09,4.33,4.41,10.65,6.14,16.69,5.39,6.03-.74,11.65-3.42,16.05-7.6,3.76-3.59,6.55-8.07,9.24-12.49,2.52-4.16,4.99-8.41,8.48-11.82,3.49-3.41,8.21-5.48,13.09-6.33,4.45-.78,9.01.17,11.58,4.28,2.75,4.4,3.84,9.93,2.9,14.98-1.94,10.42-9.88,18.77-16.92,26.17-3.89,4.09-7.79,8.1-11.06,12.74-3.64,5.16-6.65,10.73-9.91,16.13-3.26,5.41-6.46,10.13-10.73,14.38-2.07,2.06,1.13,5.26,3.2,3.21,9.29-9.23,14.23-21.52,21.77-32.02,3.26-4.53,7.28-8.41,11.1-12.46,3.82-4.05,7.62-8.33,10.77-13.01,3.15-4.68,5.52-9.54,6.32-14.95.87-5.88-.27-11.87-3.26-17.02-2.99-5.15-8.06-7.46-13.73-7.18-5.29.26-11.02,2.16-15.28,5.32-8.51,6.29-11.8,16.72-18.53,24.53-3.71,4.3-8.48,7.35-14.1,8.44-5.62,1.09-11.39-.3-15.17-4.67-3.4-3.94-4.41-9.52-4.01-14.58.5-6.21,3.66-11.92,7.23-16.89,1.96-2.73,4.16-5.28,6.39-7.79,2.23-2.51,5.07-5.02,5.46-8.52.39-3.49-1.96-6.7-3.53-9.47-1.65-2.91-3.62-5.77-6.25-7.88-4.87-3.92-11.17-5.41-17.3-4.45-6.51,1.02-12.59,5.31-14.04,11.98-.77,3.55-1.11,7.13-2.13,10.63-1.01,3.5-2.32,6.9-3.77,10.22-2.75,6.28-5.8,12.42-8.82,18.57-5.68,11.59-11.73,23.05-19.05,33.7-7.32,10.65-15.68,20-25.92,27.46-4.91,3.58-10.52,7.14-13.15,12.87-1.53,3.31-1.9,6.9-1.91,10.52,0,3.62.29,6.94-.35,10.33-1.27,6.69-5.08,12.49-8.95,17.96-4.47,6.31-9.02,12.56-13.54,18.84-4.11,5.71-8.86,11.42-11.06,18.22-1.92,5.92-1.09,12.32,3.11,17.07,4.2,4.74,10.51,5.41,15.5,1.95,5-3.47,7.57-9.18,10.96-14.03,3.16-4.53,7.25-9.23,12.54-11.25,1.23-.47,2.53-.83,3.84-.99,1.87-.22,3.76-.06,5.63-.33,3.69-.53,6.22-3.02,8.78-5.51,5.39-5.22,10.57-10.64,15.67-16.15,4.11-4.45,8.62-9.29,14.67-10.91,3.44-.92,7.06-.81,10.54-1.49,2.7-.53,5.27-1.65,7.49-3.27,4.06-2.94,7.06-6.94,10.24-10.77,2.88-3.46,6.09-7.09,10.25-8.39,6.06-1.89,12.44,1.36,18.44,2.11,3.3.42,6.53.03,9.59-1.32,2.84-1.25,5.33-3.27,7.53-5.44,2.07-2.05-1.12-5.25-3.2-3.2l.04.05Z"/>
        <path class="cls-8" d="M664.05,62.58c-8.54-.8-16.73-3.69-24.93-6.01-8.21-2.33-15.92-3.8-24.16-3.72-15.31.15-30.43,5.1-43.36,13.2-13.3,8.33-24.12,20.01-32.12,33.46-8.11,13.61-13.37,28.87-16.18,44.43-.72,3.97-1.37,8.01-1.67,12.04-.3,4.03.06,8.51,2.15,12.22,1.94,3.46,5.09,6.04,8.37,8.17,3.28,2.13,6.93,4.09,10.56,5.81,14.71,6.98,30.7,10.48,46.81,12.25,8.16.91,16.37,1.36,24.58,1.6,8.21.24,16.58.45,24.85.27,4.26-.1,8.45-.68,12.34-2.5,2.62-1.23,5.01-3.05,6.98-5.18,4.21-4.55,6.74-10.35,8.82-16.12,2.08-5.77,3.84-12.15,6.21-18.06,2.62-6.53,6.6-12.47,11.43-17.58,10.55-11.18,24.39-18.49,38.39-24.42,15.3-6.48,31.26-11.67,45.68-20.07,8.52-4.96,16.55-10.82,24.12-17.12,8.28-6.9,16.1-14.51,22.49-23.22,5.11-6.99,9.88-15.56,9.59-24.5-.14-4.06-1.4-8.05-3.77-11.36-2.9-4.06-6.94-7.09-11.33-9.37-9.88-5.13-21.43-7.91-32.54-6.38-9.26,1.28-17.82,5.48-25.47,10.72-8.35,5.71-15.85,12.57-23.31,19.35-7.47,6.78-15.1,13.76-23.25,19.45-8.15,5.69-16.75,10.14-26.58,12.02-2.42.46-4.31.69-6.9.81-2.6.13-5.2.05-7.78-.18-1.22-.11-2.26,1.12-2.26,2.26,0,1.31,1.04,2.16,2.26,2.26,10.29.94,20.45-1.09,29.83-5.33,9.38-4.25,17.15-10.1,24.74-16.46,7.75-6.5,15.03-13.53,22.68-20.15,3.7-3.21,7.22-6.1,11.01-8.82,3.79-2.72,7.68-5.15,11.84-7.16,2.08-1.01,3.49-1.59,5.8-2.37,2.12-.72,4.29-1.29,6.49-1.69.49-.09.99-.17,1.47-.24.15-.02.28-.05.43-.06-.41.05-.04,0,.04,0,.29-.04.57-.07.86-.1,1.16-.12,2.32-.19,3.47-.22,1.16-.03,2.3,0,3.45.06.57.04,1.13.07,1.7.13.26.03.53.05.8.08.15.02.31.04.46.05.23.03-.19-.03.21.03,5.67.81,11.4,2.58,16.58,5.02,2.4,1.12,4.69,2.44,6.82,4.01.24.17.58.44,1.02.82.44.38.85.75,1.26,1.14.37.35.72.72,1.07,1.1.15.17.31.34.46.53.1.12.54.66.43.53-.13-.16.28.37.34.46.13.18.25.36.37.54.27.41.53.83.77,1.26.22.4.42.8.61,1.2.05.11.1.22.15.33.14.3-.15-.35-.02-.05.1.24.2.49.28.74.31.85.54,1.72.72,2.61.04.2.07.4.11.6.02.12.04.23.05.34,0-.07-.05-.51-.02-.08.04.46.09.93.11,1.4.04.92.02,1.85-.06,2.76-.02.21-.04.43-.06.63-.06.62.02-.05-.04.31-.08.49-.16.98-.26,1.47-.42,1.98-1.05,3.9-1.81,5.78-.16.41-.04.11,0,.03-.05.13-.11.25-.16.38-.1.22-.2.44-.3.66-.25.54-.51,1.08-.78,1.61-.51,1.01-1.05,1.98-1.62,2.95-1.2,2.05-2.53,4.01-3.93,5.92-1.4,1.91-2.85,3.69-4.51,5.6-1.74,2-3.55,3.95-5.41,5.83-7.36,7.45-15.34,14.03-23.78,19.96-9.96,7-20.62,12.55-31.87,17.21-15.2,6.3-30.98,11.56-45.13,20.12-12.44,7.52-23.99,17.67-30.23,31.07-2.7,5.79-4.47,11.95-6.49,18-1.85,5.53-3.87,11.15-7.35,15.9-1.48,2.01-3.48,3.97-5.62,5.29-2.95,1.83-6.29,2.65-9.79,2.88-4.13.27-8.29.11-12.42.08-4.13-.03-8.01-.08-12.02-.18-15.98-.39-32.06-1.46-47.68-5.09-7.55-1.76-15.01-4.09-22.09-7.27-3.59-1.61-7.1-3.42-10.48-5.43-3.03-1.81-6.23-3.86-8.24-6.84-2.22-3.28-2.45-7.14-2.17-10.98.28-3.84.91-7.63,1.6-11.39,1.41-7.65,3.41-15.2,6.06-22.52,5.19-14.32,13.01-27.82,23.64-38.8,10.25-10.6,23.24-18.66,37.41-22.83,7.05-2.06,14.34-3.16,21.68-3.07,8.08.1,15.83,1.94,23.55,4.19,7.87,2.3,15.73,4.77,23.94,5.54,1.22.12,2.26-1.12,2.26-2.26,0-1.32-1.04-2.15-2.26-2.26h0Z"/>
        <path class="cls-4" d="M112.48,259.04h211.52s22.04-42.99-44.07-40.71c18.89-17.86,12.44-92.18-48.86-45.58-31.71-32.12-66.96-66.76-94.67-38.42-27.7,28.34,3.77,70.72,3.77,70.72,0,0-37.14-20.34-41.55,2.96-4.41,23.31,3.15,39.05,13.85,51.01h0Z"/>
        <path class="cls-3" d="M271.65,313.45c-5.81-1.59-12.3-4.12-15.94-9.21-3.84-5.37-3.16-12.08-.15-17.66,6.78-12.61,22.46-18.63,36.2-17.4,3.98.35,7.93,1.89,11.96,1.33,3.74-.52,6.91-2.89,9.75-5.23,4.81-3.97,8.71-9.07,11.49-14.64,5.63-11.27,7.09-24.79,3.19-36.86-2.21-6.82-6.47-12.47-9.77-18.74-1.54-2.93-2.87-6.14-3.01-9.49-.14-3.66,1.19-6.97,3.14-10,1.96-3.02,4.44-5.84,6.94-8.49,2.5-2.65,5.15-5.16,7.94-7.52,5.51-4.65,11.59-8.65,18.01-11.94,6.42-3.3,13.22-5.83,20.23-7.56,7.01-1.73,15.5-2.93,22.02,1.42,2.45,1.64,4.51,4.07,5.3,6.94,1.02,3.69-.34,7.55-1.48,11.06-2.11,6.55-4.91,13.24-10.07,17.99-5.54,5.1-13.39,6.37-19.33,10.87-4.99,3.78-8.37,9.35-9.72,15.45-1.35,6.09-.77,12.5,1.93,18.12,1.41,2.94,3.54,5.97,6.38,7.65,3.66,2.16,7.91,1,11.82.31,7.26-1.28,14.49-2.85,21.25-5.87,6.76-3.01,12.09-7.58,16.44-13.44,4.11-5.53,7.22-11.72,11.3-17.26,4.08-5.54,9.09-9.62,15.48-11.73,6.39-2.11,13.28-2.28,19.85-1.18,6.73,1.14,13.39,3.44,19.2,7.06,5.8,3.62,10.45,8.79,11.34,15.71.52,4.06-.06,8.21-.8,12.21-.6,3.27-1.27,6.52-2.12,9.73-1.5,5.63-3.57,11.54-7.5,15.97-1.8,2.03-3.95,3.71-6.46,4.74-3.44,1.4-7.26,1.51-10.9.97-7.87-1.19-15.28-4.41-23.3-4.86-7.13-.4-14.3,1.01-20.85,3.8-6.44,2.75-12.27,6.98-16.78,12.35-3.96,4.73-7,10.1-9.62,15.66-5.12,10.89-8.7,22.79-15.94,32.56-3.66,4.93-8.42,8.84-14.04,11.32-3.62,1.59-7.49,2.62-11.32,3.53-3.84.91-7.94,1.85-11.92,2.64-8.08,1.62-16.38,2.7-24.63,1.76-3.85-.43-7.76-1.39-11.29-3.04-3.52-1.66-6.92-3.77-10.69-4.97-7.63-2.44-15.84-2-23.55-4.08-2.81-.76-4.02,3.61-1.2,4.36,8.12,2.18,16.92,1.52,24.83,4.53,3.67,1.39,7,3.6,10.64,5.08,3.89,1.59,8.11,2.36,12.27,2.75,8.51.8,17.1-.46,25.41-2.15,8.05-1.64,16.37-3.21,23.9-6.59,12-5.39,18.82-16.61,23.96-28.18,4.96-11.16,8.87-23.45,17.06-32.78,9.12-10.38,23.77-15.87,37.47-13.65,8.17,1.33,16.05,5.04,24.45,4.75,7.11-.24,13.11-3.73,17.32-9.36,3.8-5.09,5.91-11.35,7.42-17.46.87-3.52,1.59-7.1,2.15-10.68.68-4.3,1.01-8.63.24-12.95-2.66-14.76-19.29-22.44-32.54-24.94-7.04-1.33-14.4-1.45-21.35.42-6.95,1.87-13.02,5.77-17.66,11.25-4.63,5.48-7.86,11.72-11.79,17.58-1.89,2.82-3.96,5.51-6.42,7.87-2.62,2.5-5.67,4.48-8.91,6.07-6.59,3.22-13.92,4.72-21.09,5.99-1.86.33-3.77.78-5.66.89-1.89.11-3.21-.41-4.52-1.66-2.08-2.01-3.54-4.73-4.41-7.46-1.72-5.41-1.38-11.44.9-16.68,1.16-2.65,2.8-5.07,4.89-7.07,2.6-2.48,5.88-4.04,9.11-5.5,3.53-1.58,7.14-3.08,10.25-5.43,3.11-2.35,5.44-5.06,7.44-8.22,2-3.16,3.54-6.66,4.84-10.2,1.38-3.75,2.75-7.67,3.1-11.66.65-7.54-4.63-13.86-11.3-16.66-7.77-3.26-16.68-1.58-24.52.59-14.5,4-28.01,11.4-39.29,21.33-2.78,2.44-5.42,5.05-7.9,7.81-2.48,2.76-5.14,5.89-7.05,9.26-1.91,3.38-3.1,7.23-2.85,11.16.24,3.93,1.56,7.41,3.28,10.78,3.15,6.22,7.55,11.74,9.69,18.45,1.88,5.9,2.37,12.13,1.66,18.28-1.38,12.09-7.95,24.34-18.36,30.94-1.52.97-3.13,1.73-4.97,1.77-2.1.04-4.14-.53-6.19-.9-3.74-.68-7.56-.91-11.35-.6-7.57.62-15.01,3.06-21.34,7.27-6.34,4.21-11.17,9.8-13.58,16.81-2.35,6.87-1.22,14.31,3.64,19.79,4.37,4.92,10.88,7.61,17.09,9.33,2.81.77,4.01-3.6,1.2-4.36h0Z"/>
        <path class="cls-5" d="M510.69,176.68c7.16-4.18,14.62-5.44,21.5-4,6.66,1.39,12.82,5.31,17.65,11.61l.46.62h0c7.84,10.64,3.62,23.75-5.44,32.78-8.93,8.89-22.33,13.55-33.02,7.93l-.51-.27c-19.74-11.08-19.98-36.95-1.09-48.38l.45-.27Z"/>
        <path class="cls-3" d="M538.99,191.46c.62.89,1.12,2.31,1.88,3.03.87.83-.24-.58-.37-1.01.17.61.42,1.2.59,1.81.5,1.81.08,2.12.17.05-.05,1.2,0,2.48,0,3.69-.04-2.61.2-1.13-.23.51-.28,1.08-.68,2.09-1.02,3.14.69-2.13.47-1.11-.26.23-.63,1.15-1.37,2.23-2.08,3.32-1.25,1.93,1.46-1.43-.69.74-.82.83-1.61,1.7-2.48,2.5-.96.89-2.23,1.8-.35.45-1.1.78-2.18,1.55-3.34,2.24-.98.58-2.16.99-3.08,1.64-1.15.81.78-.33.98-.39-.62.19-1.22.45-1.85.65-.92.3-1.87.49-2.81.76-2.27.66.31.03.78-.02-.63.05-1.26.12-1.89.15-.63.03-1.26-.03-1.88,0-1,.04-1.08.45-.06.08,1.01-.37,1.03.25-.05-.04-.62-.16-1.22-.27-1.83-.45-1.72-.51-1.83-1.21-.32-.04-1.18-.92-2.71-1.54-3.95-2.42,2.04,1.44-.62-.63-1.21-1.24-.67-.68-2.5-3.47-1.07-1.04-.54-.92-1.18-1.78-1.69-2.73-.33-.62-.63-1.25-.94-1.88.48.99.58,1.83.24.33-.25-1.11-.47-2.43-.87-3.49-.51-1.36.15.83.15,1.08.03-.66-.09-1.39-.1-2.04,0-1.02.11-2.04.14-3.06-.13,3.41.19-.33.52-1.41.2-.66.46-1.3.67-1.96-.08.26-1.15,1.98-.32.86.7-.94,1.26-2.2,1.86-3.21,1.21-2.03-1.2.96.58-.66.54-.49,3.61-3.31,1.48-1.67,1.33-1.03,2.8-1.81,4.23-2.67.24-.14,2.37-1.17.53-.38.82-.34,1.68-.62,2.53-.88.84-.25,5.27-.88,2.7-.73,1.67-.1,3.3-.11,4.97.03-2.7-.22,1.59.54,2.4.77.15.05,2.01.81.68.22-1.33-.59.97.56,1.19.69.74.42,1.45.88,2.16,1.35,1.75,1.17-1.26-1.18.34.28.49.45.99.9,1.47,1.37-.02-.02,2.67,3.01,1.5,1.48,4.44,5.81,11.68,8.9,18.57,4.87,5.72-3.35,9.35-12.72,4.87-18.58-6.47-8.46-14.24-15.28-24.74-18.22-9.6-2.69-19.67-1.5-28.73,2.39-16.08,6.91-28.07,23.15-26.64,41.18,1.36,17.13,13.33,33.61,30.5,37.88,15.58,3.88,32.35-2.94,43.04-14.43,12.16-13.08,17.54-33.19,6.57-48.8-4.21-5.99-11.86-8.79-18.57-4.87-5.93,3.47-9.1,12.55-4.87,18.58l.02-.02Z"/>
      </g>
    </g>
    <path class="cls-2" d="M404.04,59.6c8.56-.49,17.45.87,25.37,2.92l1.57.42c9.38,2.58,17.78,6.36,25.8,11.76l.78.53h0c2.49,1.71,4.89,3.58,7.31,5.46,2.42,1.87,4.85,3.75,7.39,5.45,4.91,3.29,10.21,5.94,16.55,6.65l.62.06c.54.05,1.19.04,1.87.02.69-.01,1.41-.03,2.12-.01.71.02,1.37.09,1.94.24.5.13.89.31,1.17.56l.11.11c.54.57.7,1.23.63,1.94-.08.73-.43,1.53-.94,2.33-.91,1.4-2.27,2.7-3.33,3.49l-.43.31h0c-3.42,2.3-7.58,3.31-11.7,3.04l-.41-.03-.11.39c-.06.21-.09.42-.07.61.03.23.14.41.32.53.13.08.29.12.31.13,0,0,.02,0,.02,0,7.2,6.37,12.62,16.22,11.75,26.03-.09.95-.26,2.32-.74,3.3-.23.48-.51.8-.82.95-.29.14-.69.18-1.3-.1h0s-.03-.02-.07-.05c-.05-.04-.11-.1-.18-.17-.14-.15-.32-.36-.51-.61-.39-.51-.85-1.17-1.32-1.86-.81-1.19-1.67-2.51-2.24-3.25l-.23-.28c-.51-.59-1.09-1.14-1.66-1.67-.57-.53-1.12-1.04-1.61-1.59l-.11-.13-.17-.03h-.14c-.14-.01-.3.03-.44.16-.16.15-.19.33-.2.43-.02.19.02.39.05.49h0c1.29,5.62,2.39,13.07,4.87,19.5,2.4,6.24,6.15,11.67,12.74,13.63l.65.18h0c.87.22,1.61.3,2.3.36.7.06,1.33.09,2.05.22h0c.7.12,1.12.36,1.37.63.24.26.37.61.37,1.06,0,.95-.52,2.22-1.36,3.6-1.67,2.74-4.38,5.58-5.43,6.45-4.9,4.03-11.39,5.63-17.64,4.47l-.7-.13.11.7c1.68,10.55-3.41,21.21-11.27,28.2l-.77.66c-.99.83-2.99,2.48-4.88,3.38-.96.46-1.81.68-2.46.59-.31-.04-.57-.16-.79-.36-.19-.18-.37-.44-.51-.82l-.06-.17c-.06-.2-.09-.46-.11-.76,0-.15-.02-.31-.02-.47,0-.16-.01-.33-.02-.49-.02-.33-.06-.68-.16-1-.1-.32-.28-.65-.6-.88l-.6-.43-.18.71c-1.46,5.74-5.96,10.32-10.85,13.56l-.53.35.46.43c5.93,5.57,10.3,12.29,14.23,19.37,3.91,7.04,7.43,14.52,11.58,21.42l.28.47.44-.33,3.34-2.48.3-.22-.12-.35c-1.7-4.87-1.54-9.94.4-13.87,1.93-3.91,5.66-6.74,11.23-7.14l.33-.02.1-.32c1.1-3.36,2.04-7.13,3.1-10.75,1.07-3.64,2.29-7.18,4-10.2h0c1.24-2.19,2.91-3.88,4.82-4.65,1.76-.72,3.77-.67,5.92.6l.43.27h0c2.79,1.82,3.53,5.02,3.25,8.57-.27,3.54-1.54,7.29-2.58,10l.8.55c1.36-1.24,2.88-3.02,4.48-4.83,1.61-1.82,3.33-3.68,5.12-5.14,1.8-1.46,3.64-2.47,5.48-2.66,1.7-.18,3.49.34,5.35,2l.37.35c1.62,1.57,2.23,3.18,2.22,4.78-.01,1.62-.66,3.3-1.67,4.98-1.01,1.68-2.36,3.32-3.72,4.86-1.35,1.53-2.72,3-3.72,4.27l-.33.42.45.3c1.79,1.21,2.95,2.51,3.73,4.44l.15.39h0c.04.11.06.32.08.6.01.12.02.26.04.37,0,.06.02.12.04.19.01.04.05.16.15.26h0s.02.02.03.02c0,0,0,0,0,0h0c.08.07.16.11.21.13.07.03.14.05.2.08.14.04.31.09.49.14.38.1.86.24,1.38.43,1.04.4,2.2,1.03,2.95,2.11h0c2.1,3.04,1.17,6.61-1.09,9.94-2.11,3.11-5.3,5.85-7.82,7.45l-.5.3c-.25.15-.64.27-1.1.41-.21.07-.44.14-.64.22-.14.05-.3.12-.43.22l-.13.1h0c-.09.09-.16.2-.22.29-.06.1-.12.22-.19.35-.13.25-.28.57-.43.89-.32.66-.63,1.32-.85,1.64-3.87,5.5-10.01,7.97-16.53,9.32l-.17.04-.11.14c-11.08,13.63-24.21,28.34-42.46,30.47l-.51.06.07.51c.41,2.82.94,5.61,1.5,8.39l.56,2.78c.47,2.34,1.25,5.21,1.94,8.01.66,2.64,1.24,5.23,1.46,7.31l.04.41h0c.03.39.04.69,0,1.03l-.05.35h0c-.12.71-.67,1.48-1.6,2.27-.92.78-2.13,1.51-3.45,2.17-2.64,1.32-5.6,2.28-7.17,2.59l-.46.09.06.46c1.14,8.78,2.06,17.59,2.97,26.41.92,8.82,1.83,17.65,2.96,26.45v.08s.04.07.04.07c.89,1.93,2.36,3.3,3.8,4.57,1.47,1.29,2.9,2.47,3.9,4.09h0c2.4,3.88,2.58,7.67,1.68,11.41-.91,3.77-2.92,7.47-4.89,11.16l-.26.48.5.21c1.54.66,3.01,1.12,4.26,1.89,1.13.7,2,1.62,2.39,3.13l.07.31h0c.06.3.08.94.1,1.59,0,.31.01.61.02.84,0,.11.01.22.02.3,0,.04,0,.09.02.13,0,.02.01.05.02.09,0,.03.03.1.09.17v.02s.02.02.02.02c.05.06.11.09.13.1.03.02.06.03.08.04.05.02.1.04.15.06.1.04.24.08.39.13.3.1.7.21,1.11.34.74.22,1.49.46,1.91.63l.16.07c2.99,1.47,5.43,3.76,5.74,7.1l.03.37.36.07c13.19,2.7,25.17,8.35,29.35,21.88h0c.16.53.3,1.45.46,2.39.08.46.16.91.25,1.3.07.32.16.64.28.88l.05.1c.12.21.35.38.52.5.19.14.44.29.67.43.43.27.83.55,1.12.85l.11.13h0c.66.81,1.16,1.98,1.52,3.38.36,1.39.57,2.98.68,4.61.2,3.26-.04,6.61-.39,8.76-.05.28-.26.92-.48,1.59-.1.32-.21.63-.28.88-.04.12-.07.24-.09.34-.01.05-.02.1-.03.15,0,.02,0,.05,0,.09v.14c.04.13.11.23.16.28.05.06.1.1.15.13.09.06.19.11.29.16.2.09.48.19.78.28.62.2,1.43.41,2.27.62.84.21,1.71.42,2.44.61.56.14,1.01.26,1.32.35l.25.08h0c2.17.76,3.59,1.47,4.43,2.13.84.66,1,1.18.94,1.56-.08.44-.48.95-1.31,1.51-.81.55-1.94,1.07-3.26,1.56-4.65,1.72-11.42,2.94-14.61,3.46l-1.13.18c-23.65,3.67-48.53,4.61-72.57,5.15l-4.8.1c-36.44.75-73.37.64-109.61-3.25h0c-9.05-.98-21.58-2.2-30.22-5.01l-.82-.28c-1.73-.6-2.97-1.18-3.82-1.72-.86-.55-1.27-1.03-1.42-1.42-.14-.35-.09-.68.17-1.06.27-.4.76-.82,1.46-1.23,1.38-.83,3.38-1.57,5.43-2.18,2.04-.61,4.09-1.09,5.55-1.41l.49-.11-.11-.49c-.47-2.04-.54-5.45-.12-8.76.21-1.65.55-3.26,1.01-4.65.44-1.31.97-2.39,1.6-3.12l.13-.14h0c.24-.26.63-.51,1.01-.71.18-.1.35-.18.49-.25.07-.03.13-.06.18-.09.03-.01.06-.03.08-.05.01,0,.09-.06.16-.15h0s0-.02,0-.02c.05-.08.08-.15.09-.2.02-.06.03-.12.05-.18.03-.12.06-.28.08-.45.06-.34.12-.77.17-1.2.09-.68.18-1.35.26-1.8l.08-.37h0c2.48-9.4,9.36-15.56,18.09-19.41h0c.49-.21,1.24-.4,2.03-.6.38-.1.76-.2,1.09-.3.32-.1.63-.21.86-.36h0c.21-.13.34-.33.43-.49.09-.17.17-.36.24-.54.12-.29.2-.53.3-.7l.1-.15h0c2.16-2.96,4.56-4.54,8.11-5.62l.37-.11v-.38c-.11-2.53.61-4.9,2.28-6.73l.35-.36h0c.21-.21.75-.55,1.3-.89.27-.17.51-.31.71-.43.1-.06.18-.11.25-.16.03-.02.07-.04.1-.07.01,0,.07-.05.12-.12h0s0,0,0,0c0,0,0,0,0,0h0c.09-.12.16-.25.18-.41.02-.16-.01-.3-.06-.42-.07-.16-.18-.3-.28-.41l-.1-.1h0s-.35-.31-.35-.31c-.37-.31-.81-.63-1.22-.94-.49-.37-.95-.73-1.29-1.05l-.14-.14-.35-.37c-3.57-3.87-5.51-8.26-5.74-12.68-.24-4.57,1.35-9.22,4.94-13.45h0c.48-.56,1.07-1.09,1.69-1.66.53-.49,1.08-1,1.54-1.54l.19-.24h0c1.05-1.37,1.76-3.43,2.3-5.5.4-1.55.72-3.17,1.01-4.57l.27-1.3h0c.26-1.19.82-3.47,1.28-5.63.23-1.09.45-2.18.6-3.13.13-.82.22-1.57.22-2.13v-.23s0,0,0,0c-.01-.25-.03-.53-.13-.8-.11-.29-.31-.52-.6-.72l-.33-.22-.29.27c-2.1,1.97-4.32,2.43-6.49,2.01-2.07-.4-4.12-1.6-5.99-3.16l-.37-.32h0s-.1-.1-.1-.1c-.04-.04-.08-.1-.12-.17-.09-.13-.17-.27-.27-.43-.09-.15-.2-.32-.32-.46-.11-.13-.29-.31-.55-.37h0c-.13-.03-.28-.03-.4-.03-.14,0-.3.02-.48.03-.35.03-.79.08-1.24.13-.82.09-1.64.16-2.2.12l-.22-.02c-.69-.1-1.68-.54-2.68-1.13-.86-.51-1.67-1.1-2.22-1.59l-.22-.2c-1.92-1.9-3.24-4.74-4.06-8.14-.82-3.39-1.13-7.3-1.06-11.27.14-7.95,1.8-16.09,3.87-20.82h0c.32-.73,1.07-1.95,1.8-3.18.36-.6.71-1.21.98-1.73.26-.5.49-.99.55-1.36h0c.4-2.17.55-4.74.65-7.3.09-2.26.14-4.51.28-6.54l.07-.85c.75-8.26,1.6-16.53,2.5-24.78l.04-.33-.3-.16c-1.94-1.04-4.28-2.11-6.08-3.59-1.72-1.41-2.87-3.12-2.66-5.42l.02-.23h0c.23-1.89,1.14-4.91,2.18-8.02.52-1.55,1.07-3.1,1.57-4.53.5-1.43.97-2.73,1.32-3.76h0c3.02-8.86,6.53-17.99,10.75-26.37l.85-1.67c.94-1.81,1.99-3.56,3.04-5.33,1.04-1.77,2.08-3.56,2.99-5.42l.24-.49-.51-.19c-10.54-4-18-14.59-17.9-25.93v-1.4s-.89,1.08-.89,1.08c-1.74,2.09-2.95,5.62-3.3,8.38l-.06.54c-.04.45-.03,1.01-.02,1.58.02.58.04,1.18.03,1.77,0,.59-.05,1.14-.15,1.6-.09.41-.22.71-.39.91l-.07.08h0c-.47.47-1.07.59-1.8.42-.75-.17-1.6-.64-2.46-1.28-1.49-1.12-2.89-2.66-3.66-3.68l-.29-.4-.27-.4c-5.52-8.47-4.72-19.95-1.37-29.23l.37-1.02-1.01.38c-.66.25-1.28.57-1.86.89-.45.24-.87.48-1.31.69l-.44.2c-2.95,1.28-6.86,2.37-10.73,2.65-3.76.27-7.41-.23-10.1-1.99l-.26-.17c-1.39-.97-1.94-1.77-2.07-2.38-.12-.59.11-1.16.67-1.78.56-.63,1.38-1.22,2.27-1.83.87-.59,1.82-1.19,2.53-1.8h0c3.64-3.09,6.06-6.99,8.1-11.09,1.02-2.05,1.95-4.16,2.89-6.24.82-1.83,1.65-3.63,2.56-5.38l.39-.75c3.38-6.29,7.87-11.98,12.17-17.81,4.15-5.63,8.12-11.38,10.66-17.86l.24-.63c2.21-5.9,3.5-11.68,5.12-17.29,1.57-5.45,3.45-10.79,6.78-16.1l.33-.51h0c10.48-16.35,31.59-23.24,47.6-10.51l.33.26.32-.29c6.74-6.15,15.44-8.79,24.56-9.32Z"/>
    <path class="cls-3" d="M476.86,160.39c-.83-4.93-3.8-9.21-6.92-12.96l-2.2,6.58c-7.27,13.46-23.54,17.43-37.01,10.69l-1.31,3.58c7.72.47,16.19,3.87,20.58,10.52,5.74,8.72,1.05,15.95-9.19,12.12-.61-.22-1.6-1.04-1.85-1.09-.27-.04-2.14,1.26-3.01,1.43-1.37.27-2.84.02-4.15-.44-1.04-.37-3.28-2.24-3.56-2.29-.35-.07-2.56,1.19-3.37,1.42-2.23.63-4.57.76-6.75-.1-.8-.32-2.77-1.94-3.18-1.91-.26.01-3.54,2.18-4.49,2.56-4.61,1.81-9.3,1.18-13.07-2.02-4.85,4.08-17.51,8.67-18.9-.96-1.62-11.18,16.32-18.22,25.2-18.62.93-4.49,4.46-1.43,7.02-.6,4.07,1.31,9.43,1.7,13.03-.99,3.86-2.88,2.13-7.38-1.16-9.91-1.18-.91-4.15-1.94-4.69-2.48-.91-.93-.36-4.55-.5-6.02-.51-5.42-1.76-7.99,0-13.69,3.83-12.41,14.65-10.98,25.24-11.23,1.96-.05,3.92-.78,6.01-.01l-12.59-5.48c-7.51-4.09-14.77-9.23-20.45-15.69-2.24-2.55-3.98-5.46-6.01-8.15-.33,10.71-4.18,21.99-12.7,28.85,8.35,1.12,14.27,6.22,15.58,14.7,3.7,24-24.02,37.66-43.47,26.58-10.79-6.14-17.92-22.91-8.57-33.14.05-.25-.32-.21-.48-.16-1.21.38-2.69,1.26-4.15,1.72-1.67.51-3.4.85-5.1,1.25-.4,3.19-.38,6.37-.37,9.6,0,.86.37,1.63.36,2.57-.1,4.39-1.89,4.94-4.73,1.81-4.04-4.43-4.07-8.36-10.83-10.33-10.33-3.02-18.87,4.3-21.26,14.04-2.76,11.23,1.51,21.54,10.62,28.23v-.02c.48.32,1.07.55,1.58.87,3.29,2.01,8.25,4.52,12.23,4.36,2.45-.1,7.07-.6,8.79-2.53.88-.99,1.16-4.03,2.41-3.64,7.12,12.6,18.47,20.33,31.84,25.16,25.39,9.18,54.5,8.13,76.37-8.75,10.12-7.81,21.46-21.77,19.15-35.4v-.02Z"/>
    <path class="cls-3" d="M426.17,213.26c8.74,3.67,17.33,9.81,23.43,17.11,8.22,9.87,13.09,22.7,19.17,33.95l-17.53,8.58c-.75-4.83-1.7-9.62-2.71-14.4-.91-4.28-2.2-13.17-3.78-16.75-1.09-2.48-3.93-2.5-4.84.09l20.11,96.88c-4.01-.51-8.45-.43-12.54-.34-.77.01-1.48.33-2.25.36-27.35.71-54.73,1.35-82.14,1.24-1.34-3.75-4.18-6.49-6.72-9.4.43-10.54,1.91-21.2,2.77-31.78.09-1.07-.11-2.15.05-3.21.23-.69,1.64-.55,2.41-.83,2.28-.86,4.95-2.83,5.33-5.42.86-5.93.76-12.8,1.33-18.88.71-7.5,1.89-15,2.6-22.5.16-1.73,1.09-6.35-.88-6.94-1.81-.54-2.9.4-3.27,2.12-1.29,5.93-1.74,14.82-2.35,21.11-.76,7.86-1.03,15.79-1.96,23.62-14.21-3.96-28.93-6.25-43.61-7.82,4.73-14.44,9.34-29.15,16.55-42.59,6.09-11.36,12.88-19.71,23.97-26.52,3.09-1.9,9.42-5.44,13.01-4.87,1.79.29,5.98,6.18,7.5,7.81,8.4,8.96,19.08,16.51,32.14,14.24,7.08-1.23,13.97-7.48,14.24-14.89v.03Z"/>
    <path class="cls-3" d="M405.67,345.9c-1.4,12.63-2.38,25.32-3.59,37.97-.73,7.62-2.39,16.26-2.62,23.78-.23,7.53,5.07,12.87,1.7,19.95-.93,1.95-3.16,5.1-4.48,6.93-.5.69-3.89,5.09-4.18,5.27-2.34,1.41-4.91-1.51-6.92-2.56-2.78-1.45-5.05-2-8.23-1.69.94-14.99-16.32-15.85-27.02-12.55-5.89,1.82-9.97,5.05-10.58,11.56-6.16-4.9-9.33-12.21-4.85-19.53,2.23-3.64,5.34-4.89,7.13-9.16,2.7-6.44,3.23-14.71,4.88-21.51,2.13-.48,3.29-.17,5.17-1.67,4.75-3.8,2.9-12.26,2.5-17.54,3.15,1.54,6.8,2.12,9.74-.2,5.21-4.12,1.52-13.36.36-18.71l41-.33Z"/>
    <path class="cls-3" d="M447.98,344.93c1.56,16,2.79,32.09,4.92,48.03.64,4.77,1.15,9.61,2.56,14.22-9.63-1.03-19.89,1.3-27.35,7.66-1.58,1.35-7.36,6.41-3.58,8.14,2.41,1.1,4.9-2.62,6.5-3.91,6.71-5.37,15.69-7.61,24.25-7,1.42.1,6.83.88,7.62,1.83,2.13,2.59-.05,10.49-2.24,12.84-3.55-8.07-15.17-7.18-22.34-5.26-7.16,1.92-10.3,6.55-9.93,14.01-8.61,2.51-18.71,8.15-26.26.21,3.71-5.28,6.17-10.2,4.73-16.86-.49-2.23-1.79-4.33-2.35-6.45-1.45-5.48,2.06-23.95,2.77-30.81.94-9.08,1.51-18.22,2.35-27.3.88-3.08,13.99-8.1,17.17-8.56,2.45-.34,4.9,0,7.35-.13,4.61-.27,9.2-.87,13.82-.66h.01Z"/>
    <path class="cls-3" d="M354.88,291.8l-3.25,36.01c-1.09,5.03,2.22,6.39,4.69,9.64,2.47,3.25,5.95,15.97,6.07,20.02.17,5.76-4.69,5-7.31,1.43-2.09-2.84-.78-5.12-1.16-8.29-.39-3.32-4.13-3-4.56-.64-1.53,8.3,2.03,18.02.94,26.04-.55,4.07-4.26,4.39-6.93,1.79-4.37-4.27-5.12-16-4.57-21.81-1.91-3.3-4.35-1.24-4.7,1.84-.86,7.2,1.61,15.18,4.21,21.76-6.91,2.92-10.51-8.72-11.32-13.76-.5-3.11-.01-6.28-.44-9.01-.27-1.74-2.28-2.44-3.55-1.31-2.63,2.32.17,16.57,1.62,20.03-8-1.56-8.5-13.51-8.13-20.04.5-8.92,2.96-17.35,7.13-25.12,1.26-14.38,2.31-28.83,3.96-43.13,9.15,1.08,18.24,2.86,27.3,4.55Z"/>
    <path class="cls-3" d="M502.23,252.59c-2.4,2.22-7.68-.7-10.14-.54-1.85.12-2.87,2.51-1.32,3.91,1.09.98,3.16.88,4.07,1.47,1.1.72.89,5.44.58,6.76-.47,1.97-4.14,5.57-.58,6.63,4.75,1.42,6.54-9.57,5.22-12.58,1.26.06,2.5-1.02,3.43-1.3.81-.24.42,1.41.56,2.04,1.08,4.74,3.66,6.96,8.69,5.79.55,1.85,1.98,3.41,3.6,4.39-2.46,3.32-6.21,6.13-10.16,7.43-1.95.64-3.99.71-5.96,1.19-7.9,9.67-15.88,19.97-27.15,25.93-4.38,2.32-9.61,4.55-14.64,4.38l-5.06-25.74,24.35-18.31c1.32-.8,1.38,1.3,2.03,2.02,1.2,1.31,3.76.81,4.04-1.15.28-1.96-2.06-5.14-2.74-7.32-3.8-12.25,4.35-17.56,15.62-14,2.72.86,6.87,3.07,6.67,6.35-.04.72-.57,2.21-1.09,2.68h-.01Z"/>
    <path class="cls-3" d="M505.91,477.56l-19.29,2.7c-6.17,1.03-11.72,5.32-17.99,5.77-3.72.27-9.8-.69-13.56-1.4-1.22-.23-8.5-1.9-8.63-2.65,1.33-12.15,9.08-26.12,22.54-27.23,14.11-1.15,35.55,6.35,36.94,22.8Z"/>
    <path class="cls-3" d="M367.22,486.65c-7.68,1.64-16.44,4.29-24.05,1.16-3.37-1.38-5.65-3.71-9.43-4.57-3.97-.89-9.39-1.36-13.52-1.78-5.14-.51-10.34-.6-15.46-1.15,1.57-9.45,9.42-16.46,18.31-19.15,8.21-2.48,19.57-2.62,27.58.58,9.45,3.77,16.97,14.59,16.57,24.9h0Z"/>
    <path class="cls-3" d="M383.89,500.67c-1.45-2.29,4.7-8.34,6.5-9.55,1.8-1.21,8-2.78,5.19-5.59-1.45-1.45-4.51.39-5.98,1.23-2.57,1.46-5.83,4.34-7.7,6.62-2.02,2.45-3.97,7.35-6.4,8.9-4.32,2.73-19.74,3.37-25.01,2.98-8.85-.66-11.07-7.23-18.87-10.1-5.05-1.86-22.79-4.23-27.97-3.55-1.42.18-2.71,1.31-4.09,1.12.81-1.74.75-5.32,1.92-6.78.45-.55,1.16-.51,1.8-.56,6.21-.53,26.45.94,31.96,3.21,2.29.94,4.16,2.61,6.53,3.57,6.66,2.68,14.05,1.58,20.93.26,13.9-2.69,27.1-11.3,37.42-20.71l1.95,19.73c1.08,5.24-4.46,7-8.46,8.14-1.43.42-8.98,2.28-9.72,1.1h.01Z"/>
    <path class="cls-3" d="M509.41,482.2c.76.54,1.81,7.27,1.38,7.75-4.29-2.05-8.89-1.26-13.41-.55-3.5.55-7.3,1.44-10.57,2.78-10.46,4.3-11.08,10.87-24.69,9.84-6.6-.49-9.98-5.12-16.86-4.54-2.9.24-6.04,1.62-8.87,1.88-8.38.77-9.69-7.4-13.99-12.64-4.3-5.23-10.26-9-17.01-9.86l-.7-6.14c15.17,6.25,29.93,13.83,46.01,17.64,5.89,1.4,14.59,2.82,20.51,1.88,5.13-.82,9.76-3.89,14.78-5.07,5.02-1.19,16.26-3.24,21.1-3.34.45,0,2.03.18,2.31.38h-.01Z"/>
    <path class="cls-3" d="M388.8,449.45c.22.17,4.95.17,5.65-.16l.32.23c.97,5.26,2.79,10.87,2.19,16.23-7.07,8.2-15.09,14.75-25.14,18.99-.44-7.67-4.1-14.59-9.11-20.2,3.67-.51,6.82-4.39,5.54-8.15,7.69,2.06,10.78-7.53,5.27-12.22,3.25-4.46,7.29-5.83,11.15-1.12,1,1.23,3.44,5.85,4.15,6.41h0Z"/>
    <path class="cls-3" d="M374.74,144.82c.93,12.39,19.85,11.87,21.15,0h11.39c-2.87,24.52-43.16,25.02-45.89,0h13.35Z"/>
    <path class="cls-3" d="M433,144.82c1.04,12.14,19.09,12.26,20.55.04l11.35.28c-.6,7.59-5.68,13.46-12.6,16.22-12.59,5-28.93-2.72-30.03-16.87.11-.16.42.33.49.33h10.25-.01Z"/>
    <path class="cls-3" d="M344.15,437.8c.45-3.8.05-6.01,3.42-8.47,4.75-3.48,20.39-4.78,24.07.67,1.09,1.61,1.74,6.49.99,8.11-.23.53-3.75,3.48-4.27,3.52-.49.05-5.78-2.27-7.03-2.62-5.77-1.67-11.24-1.52-17.17-1.21Z"/>
    <path class="cls-3" d="M457.41,433.89c-6.12.6-11.66,3.51-16.48,7.12-1.49-1.14-2.94-2.19-4.57-3.15-.7-.4-2.39-.94-2.71-1.2-.59-.48-.38-4.44-.18-5.39.56-2.77,2.89-4.22,5.39-5.04,7.01-2.28,20.15-3.37,18.55,7.66Z"/>
    <path class="cls-3" d="M508.95,248.25c-.27.24-.31.83-.76.86.15-2.65-.39-5.04-2.6-6.68,3.14-3.48,6.05-7.2,9.27-10.59,1.76-1.86,4.95-5.44,6.85-6.84,2.54-1.86,6.21-.61,6.01,2.42-.11,1.68-3.94,6.13-5.19,7.53-4.01,4.46-9.11,9.26-13.57,13.3h-.01Z"/>
    <path class="cls-3" d="M500.69,240.3c-2.27-1.45-4.91-1.85-7.48-2.44,2.09-4.1,2.71-8.78,4.14-13.13.94-2.87,3.32-10.7,7.56-8.04,3.32,2.08.75,9.33-.22,12.45-1.18,3.78-3.16,7.33-3.99,11.16Z"/>
    <path class="cls-3" d="M337.65,447.25c1.27-5.43,10.65-5.47,15.12-5.21,4.19.24,15.97,2.78,18.03,6.73.93,1.8-.97,3.3-2.67,3.27-1.7-.02-6.11-2.53-8.11-3.25-7.63-2.76-14.42-2.93-22.39-1.54h.01Z"/>
    <path class="cls-3" d="M330.48,455.39c1.4-1.68,4.14-2.52,6.25-3.04,7.13-1.75,16.07-1.78,22.73,1.57,1.58.8,5.44,3.14,3.92,5.25-1.92,2.7-9.57-1.27-12-2.05-6.59-2.1-14.07-2.65-20.89-1.73Z"/>
    <path class="cls-3" d="M474.67,450.18c-5.82-.15-11.33.37-16.5,3.21-2.03,1.12-6.31,5.21-8.41,3.65-3.51-2.6,3.8-7.55,6.04-8.64,5.33-2.59,15.22-3.97,18.87,1.79h0Z"/>
    <path class="cls-3" d="M418.36,218.8c-8.54,9.81-24.32,3.43-31.24-5.21,9.87,3.93,20.54,6.68,31.24,5.21Z"/>
    <path class="cls-3" d="M465.23,441.38c-5.56.29-11.35,1.41-15.92,4.76-1.7,1.25-8.66,9.13-9.91,3.97-.17-.71.06-.86.44-1.4,2.56-3.62,10.25-8.34,14.48-9.62,3.26-.99,10.2-2.47,10.91,2.29Z"/>
    <path class="cls-3" d="M519.16,245.24c1.87-.31,3.62,1.62,3.62,3.37,0,2.66-8.33,10.85-11,11.43-2.67.58-3.64-1.59-3.21-3.85.6-3.13,8.27-8.52,10.58-10.95Z"/>
    <path class="cls-3" d="M368.56,125.58l7.32-7.16c4.16-4.84,5.74-9.04,7.42-15.07.1-.33.09-.98.55-.91,1.48,6.2.71,13.62-4.05,18.25-3.42,3.32-6.85,3.63-11.23,4.88h-.01Z"/>
    <path class="cls-3" d="M517.03,262.2c.07-.12,1.8-1.13,2.22-1.52,1.93-1.79,4.05-3.98,5.67-6.06.38-.49,1.41-2.46,1.53-2.55.64-.45,2.84.96,2.9,2.43.13,3.08-6.69,10.81-9.95,10.62-1.23-.07-3.05-1.75-2.38-2.9h0Z"/>
    <path class="cls-3" d="M400.45,452.79c-.98.16-.53-.25-.66-.79-.99-4-1.48-8.12-1.29-12.25,5.63.85,1.68,9.22,1.95,13.03Z"/>
    <path class="cls-3" d="M468.43,128.24l.7,6.14c-.87.18-.56-.21-.81-.64-1.49-2.56-2.68-4.43-5.05-6.36l5.17.86h-.01Z"/>
    <path class="cls-1" d="M365.79,409.31c8.77-.06,18.26,3.09,24.09,9.91,1.89,2.21,1.36,5.45-1.83,4.42-.97-.32-4.25-3.6-5.61-4.49-7.7-5.07-20.81-5.57-29.2-2.04-1.78.75-6.95,4.9-7.75,1.23-.38-1.7.54-2.67,1.74-3.67,4.48-3.73,12.84-5.33,18.54-5.37h.01Z"/>
    <path class="cls-1" d="M336.65,160.46c-.21-.17-.45-.04-.67.21-1.8,1.99-1.33,4.2-1.63,6.45-.49,3.74-4.67,3.8-5.16.32-.54-3.86.62-8.37,3.54-11.05,0-.39-3.54-1.85-4.15-2.02-2.02-.54-5.72.04-6.2-2.61-.88-4.88,6.8-3.08,9.28-2.1,5.11,2.01,12.88,9.68,12.49,15.53-.17,2.57-3.21,3.46-4.71,1.12-.65-1.02-2.18-5.31-2.8-5.84h.01Z"/>
    <path class="cls-1" d="M341.17,183.72c2.09,0,3.78-1.7,3.78-3.79s-1.69-3.79-3.78-3.79-3.78,1.7-3.78,3.79,1.69,3.79,3.78,3.79Z"/>
    <path class="cls-3" d="M444.39,455.72c-5.77,2.49-11.49-2.66-9.35-8.88.31-.91,1.71-2.28,1.41-2.86-4.78-4.79-12.2-4.55-16.28,1.01-.47.64-.97,2.17-1.25,2.49-.18.2-3.28,1.67-3.82,1.89-3.55,1.41-6.55,1.88-10.38,1.18l-1.67,13.77,12.37,5.75,13.03,5.87c1.75.59,12.85,5.57,13.66,4.88.87-6.77,3.23-13.39,7.49-18.73-2.57-1.23-5.05-3.27-5.2-6.35h-.01Z"/>
  </g>
</svg>