<?xml version="1.0" encoding="UTF-8"?>
<svg id="Camada_2" data-name="Camada 2" xmlns="http://www.w3.org/2000/svg" xmlns:xlink="http://www.w3.org/1999/xlink" viewBox="0 0 481.65 52.27">
  <defs>
    <style>
      .cls-1 {
        fill: none;
      }

      .cls-2 {
        fill: #d1e7da;
      }

      .cls-3 {
        clip-path: url(#clippath);
      }
    </style>
    <clipPath id="clippath">
      <rect class="cls-1" width="49.36" height="49.36"/>
    </clipPath>
  </defs>
  <g id="Camada_1-2" data-name="Camada 1">
    <g>
      <g class="cls-3">
        <g>
          <path class="cls-2" d="M28.31,49.36c-1.26,0-2.27-1.02-2.27-2.28v-15.18c0-.92.55-1.75,1.4-2.1.85-.35,1.83-.16,2.48.49l10.44,10.46c.89.89.89,2.33,0,3.22-.89.89-2.33.89-3.21,0l-6.55-6.57v9.68c0,1.26-1.02,2.28-2.27,2.28h0Z"/>
          <path class="cls-2" d="M21.04,41.81h-9.7l6.58-6.49c.06-.06.12-.13.17-.2l.08-.07c.89-.88.89-2.3,0-3.18-.89-.88-2.33-.88-3.22,0l-6.84,6.76v-9.18c0-1.24-1.02-2.25-2.28-2.25s-2.28,1.01-2.28,2.25v14.62s0,.07,0,.1c0,.06,0,.12.01.17,0,.06.02.11.03.17.01.05.02.1.03.15.02.06.04.12.06.18.01.03.02.06.03.09,0,.01.02.03.02.05.03.06.06.12.09.17.02.04.05.08.07.12.03.06.07.11.11.16.03.03.06.07.08.11.04.05.09.09.14.14.03.03.06.06.09.09.05.04.1.08.16.12.03.02.07.05.11.08.06.04.11.06.17.09.04.02.08.05.13.06.02.01.04.02.06.03.04.01.08.02.12.04.05.02.09.03.14.05.06.02.12.03.18.04.05.01.1.02.15.02.06,0,.12.01.18.01.03,0,.07,0,.1,0h15.21c1.26,0,2.28-1.01,2.28-2.25s-1.02-2.25-2.28-2.25h0Z"/>
          <path class="cls-2" d="M17,24.39H2.27c-1.25,0-2.27-1.02-2.27-2.27s1.02-2.27,2.27-2.27h9.25l-6.82-6.82c-.88-.89-.88-2.32,0-3.21.88-.89,2.32-.89,3.21,0l10.69,10.7c.65.65.84,1.63.49,2.47-.35.85-1.18,1.4-2.09,1.4h0Z"/>
          <path class="cls-2" d="M21.05,19.71c-.59,0-1.17-.23-1.61-.67l-10.44-10.44c-.89-.89-.89-2.33,0-3.22.89-.89,2.33-.89,3.21,0l6.55,6.56V2.28c0-1.26,1.02-2.28,2.27-2.28s2.27,1.02,2.27,2.28v15.16c0,.92-.55,1.75-1.4,2.1-.28.12-.58.17-.87.17h0Z"/>
          <path class="cls-2" d="M43.05,40.18c-.58,0-1.16-.22-1.61-.66l-10.69-10.7c-.65-.65-.84-1.63-.49-2.47.35-.85,1.18-1.4,2.09-1.4h14.73c1.25,0,2.27,1.02,2.27,2.27s-1.02,2.27-2.27,2.27h-9.25l6.82,6.82c.88.89.88,2.32,0,3.21-.44.44-1.02.66-1.61.66h0Z"/>
          <path class="cls-2" d="M24.68,27.19c1.39,0,2.51-1.13,2.51-2.51s-1.13-2.51-2.51-2.51-2.51,1.13-2.51,2.51,1.13,2.51,2.51,2.51Z"/>
        </g>
      </g>
      <g>
        <path class="cls-2" d="M92.56,11.8l-13.81,31.49h-4.45l-13.85-31.49h4.86l11.33,25.87,11.43-25.87h4.5Z"/>
        <path class="cls-2" d="M95.21,12.07c0-1.58,1.26-2.83,2.92-2.83s2.92,1.21,2.92,2.74c0,1.62-1.21,2.88-2.92,2.88s-2.92-1.21-2.92-2.79ZM95.98,19.45h4.32v23.84h-4.32v-23.84Z"/>
        <path class="cls-2" d="M131.02,9.91v33.38h-4.14v-3.78c-1.93,2.7-4.99,4.05-8.5,4.05-6.97,0-12.05-4.9-12.05-12.19s5.08-12.14,12.05-12.14c3.37,0,6.34,1.26,8.32,3.82v-13.13h4.32ZM126.75,31.37c0-5.08-3.46-8.37-8.01-8.37s-8.05,3.28-8.05,8.37,3.46,8.41,8.05,8.41,8.01-3.33,8.01-8.41Z"/>
        <path class="cls-2" d="M158.1,28.89v14.39h-4.09v-3.15c-1.44,2.16-4.09,3.42-7.83,3.42-5.4,0-8.82-2.88-8.82-7.02,0-3.82,2.47-6.97,9.58-6.97h6.84v-.85c0-3.64-2.11-5.76-6.39-5.76-2.83,0-5.71.99-7.56,2.56l-1.8-3.24c2.47-1.98,6.03-3.06,9.85-3.06,6.52,0,10.21,3.15,10.21,9.67ZM153.78,36v-3.33h-6.66c-4.27,0-5.49,1.67-5.49,3.69,0,2.38,1.98,3.87,5.26,3.87s5.8-1.48,6.88-4.23Z"/>
        <path class="cls-2" d="M178.71,31.37c0-7.11,5.26-12.14,12.59-12.14,4.27,0,7.83,1.75,9.72,5.08l-3.28,2.11c-1.53-2.34-3.87-3.42-6.48-3.42-4.68,0-8.19,3.28-8.19,8.37s3.51,8.41,8.19,8.41c2.61,0,4.95-1.08,6.48-3.42l3.28,2.07c-1.89,3.33-5.44,5.13-9.72,5.13-7.33,0-12.59-5.08-12.59-12.19Z"/>
        <path class="cls-2" d="M205.38,31.37c0-7.11,5.26-12.14,12.42-12.14s12.37,5.04,12.37,12.14-5.22,12.19-12.37,12.19-12.42-5.08-12.42-12.19ZM225.81,31.37c0-5.08-3.42-8.37-8.01-8.37s-8.05,3.28-8.05,8.37,3.46,8.41,8.05,8.41,8.01-3.33,8.01-8.41Z"/>
        <path class="cls-2" d="M275.74,29.57v13.72h-4.32v-13.22c0-4.68-2.25-6.97-6.16-6.97-4.32,0-7.15,2.74-7.15,7.92v12.28h-4.32v-13.22c0-4.68-2.25-6.97-6.16-6.97-4.32,0-7.15,2.74-7.15,7.92v12.28h-4.32v-23.84h4.14v3.55c1.71-2.43,4.63-3.78,8.23-3.78s6.7,1.44,8.28,4.41c1.8-2.7,5.13-4.41,9.18-4.41,5.8,0,9.76,3.33,9.76,10.35Z"/>
        <path class="cls-2" d="M325.54,43.28l-.04-22.94-11.38,19.12h-2.07l-11.38-18.98v22.81h-4.32V11.79h3.69l13.13,22.13,12.96-22.13h3.69l.04,31.49h-4.32Z"/>
        <path class="cls-2" d="M357.58,28.88v14.39h-4.09v-3.15c-1.44,2.16-4.09,3.42-7.83,3.42-5.4,0-8.82-2.88-8.82-7.02,0-3.82,2.47-6.97,9.58-6.97h6.84v-.85c0-3.64-2.11-5.76-6.39-5.76-2.83,0-5.71.99-7.56,2.56l-1.8-3.24c2.47-1.98,6.03-3.06,9.85-3.06,6.52,0,10.21,3.15,10.21,9.67ZM353.26,35.99v-3.33h-6.66c-4.27,0-5.49,1.67-5.49,3.69,0,2.38,1.98,3.87,5.26,3.87s5.8-1.48,6.88-4.23Z"/>
        <path class="cls-2" d="M378.4,19.21v4.18c-.36-.04-.67-.04-.99-.04-4.63,0-7.51,2.83-7.51,8.05v11.88h-4.32v-23.84h4.14v4c1.53-2.79,4.5-4.23,8.68-4.23Z"/>
        <path class="cls-2" d="M406.3,19.44v20.6c0,8.41-4.27,12.23-12.37,12.23-4.36,0-8.77-1.21-11.38-3.55l2.07-3.33c2.2,1.89,5.67,3.1,9.18,3.1,5.62,0,8.19-2.61,8.19-8.01v-1.89c-2.07,2.47-5.17,3.69-8.59,3.69-6.88,0-12.1-4.68-12.1-11.56s5.22-11.52,12.1-11.52c3.55,0,6.79,1.3,8.82,3.91v-3.69h4.09ZM402.07,30.73c0-4.63-3.42-7.74-8.19-7.74s-8.23,3.1-8.23,7.74,3.42,7.78,8.23,7.78,8.19-3.19,8.19-7.78Z"/>
        <path class="cls-2" d="M435.99,32.79h-19.34c.54,4.18,3.91,6.97,8.64,6.97,2.79,0,5.13-.94,6.88-2.88l2.38,2.79c-2.16,2.52-5.44,3.87-9.4,3.87-7.69,0-12.82-5.08-12.82-12.19s5.08-12.14,11.96-12.14,11.79,4.95,11.79,12.28c0,.36-.04.9-.09,1.3ZM416.64,29.69h15.29c-.45-4-3.46-6.84-7.65-6.84s-7.2,2.79-7.65,6.84Z"/>
        <path class="cls-2" d="M481.65,29.56v13.72h-4.32v-13.22c0-4.68-2.25-6.97-6.16-6.97-4.32,0-7.15,2.74-7.15,7.92v12.28h-4.32v-13.22c0-4.68-2.25-6.97-6.16-6.97-4.32,0-7.15,2.74-7.15,7.92v12.28h-4.32v-23.84h4.14v3.55c1.71-2.43,4.63-3.78,8.23-3.78s6.7,1.44,8.28,4.41c1.8-2.7,5.13-4.41,9.18-4.41,5.8,0,9.76,3.33,9.76,10.35Z"/>
      </g>
    </g>
  </g>
</svg>