<?xml version="1.0" encoding="UTF-8"?>
<svg id="Camada_2" data-name="Camada 2" xmlns="http://www.w3.org/2000/svg" xmlns:xlink="http://www.w3.org/1999/xlink" viewBox="0 0 49.36 49.36">
  <defs>
    <style>
      .cls-1 {
        fill: none;
      }

      .cls-2 {
        fill: #d1e7da;
      }

      .cls-3 {
        clip-path: url(#clippath);
      }
    </style>
    <clipPath id="clippath">
      <rect class="cls-1" width="49.36" height="49.36"/>
    </clipPath>
  </defs>
  <g id="Camada_1-2" data-name="Camada 1">
    <g class="cls-3">
      <g>
        <path class="cls-2" d="M28.31,49.36c-1.26,0-2.27-1.02-2.27-2.28v-15.18c0-.92.55-1.75,1.4-2.1.85-.35,1.83-.16,2.48.49l10.44,10.46c.89.89.89,2.33,0,3.22-.89.89-2.33.89-3.21,0l-6.55-6.57v9.68c0,1.26-1.02,2.28-2.27,2.28h0Z"/>
        <path class="cls-2" d="M21.04,41.81h-9.7l6.58-6.49c.06-.06.12-.13.17-.2l.08-.07c.89-.88.89-2.3,0-3.18-.89-.88-2.33-.88-3.22,0l-6.84,6.76v-9.18c0-1.24-1.02-2.25-2.28-2.25s-2.28,1.01-2.28,2.25v14.62s0,.07,0,.1c0,.06,0,.12.01.17,0,.06.02.11.03.17.01.05.02.1.03.15.02.06.04.12.06.18.01.03.02.06.03.09,0,.01.02.03.02.05.03.06.06.12.09.17.02.04.05.08.07.12.03.06.07.11.11.16.03.03.06.07.08.11.04.05.09.09.14.14.03.03.06.06.09.09.05.04.1.08.16.12.03.02.07.05.11.08.06.04.11.06.17.09.04.02.08.05.13.06.02.01.04.02.06.03.04.01.08.02.12.04.05.02.09.03.14.05.06.02.12.03.18.04.05.01.1.02.15.02.06,0,.12.01.18.01.03,0,.07,0,.1,0h15.21c1.26,0,2.28-1.01,2.28-2.25s-1.02-2.25-2.28-2.25h0Z"/>
        <path class="cls-2" d="M17,24.39H2.27c-1.25,0-2.27-1.02-2.27-2.27s1.02-2.27,2.27-2.27h9.25l-6.82-6.82c-.88-.89-.88-2.32,0-3.21.88-.89,2.32-.89,3.21,0l10.69,10.7c.65.65.84,1.63.49,2.47-.35.85-1.18,1.4-2.09,1.4h0Z"/>
        <path class="cls-2" d="M21.05,19.71c-.59,0-1.17-.23-1.61-.67l-10.44-10.44c-.89-.89-.89-2.33,0-3.22.89-.89,2.33-.89,3.21,0l6.55,6.56V2.28c0-1.26,1.02-2.28,2.27-2.28s2.27,1.02,2.27,2.28v15.16c0,.92-.55,1.75-1.4,2.1-.28.12-.58.17-.87.17h0Z"/>
        <path class="cls-2" d="M43.05,40.18c-.58,0-1.16-.22-1.61-.66l-10.69-10.7c-.65-.65-.84-1.63-.49-2.47.35-.85,1.18-1.4,2.09-1.4h14.73c1.25,0,2.27,1.02,2.27,2.27s-1.02,2.27-2.27,2.27h-9.25l6.82,6.82c.88.89.88,2.32,0,3.21-.44.44-1.02.66-1.61.66h0Z"/>
        <path class="cls-2" d="M24.68,27.19c1.39,0,2.51-1.13,2.51-2.51s-1.13-2.51-2.51-2.51-2.51,1.13-2.51,2.51,1.13,2.51,2.51,2.51Z"/>
      </g>
    </g>
  </g>
</svg>